<svg width="845" height="666" fill="none" xmlns="http://www.w3.org/2000/svg">
  <path style="mix-blend-mode:darken" opacity=".37" d="M106.644 541.871H22.261C-.327 518.415-6.36 481.044 7.115 451.409c12.867-28.258 40.47-46.911 57.19-73.055 35.701-55.73 18.457-138.93 66.959-184.038 24.243-22.538 59.108-29.062 92.121-31.701 33.012-2.639 67.107-2.557 97.628-15.391 37.7-15.817 66.025-49.796 104.791-62.597 43.536-14.375 95.612 3.557 121.051 41.699 15.916 23.865 21.932 53.844 40.75 75.497 30.439 34.994 84.072 37.699 122.035 64.367a113.454 113.454 0 0 1 46.978 79.775c4.048 38.191-10.458 81.578 12.457 112.426 11.163 15.031 29.276 23.505 41.307 37.864 12.031 14.358 15.375 27.34 11.605 45.616H106.644Z" fill="url(#a)"/>
  <path style="mix-blend-mode:darken" opacity=".37" d="M128.215 541.871h-84.4c-22.571-23.456-28.62-60.827-15.13-90.462 12.868-28.258 40.471-46.911 57.19-73.055 35.701-55.73 18.441-138.93 66.943-184.038 24.26-22.538 59.125-29.062 92.121-31.701 32.996-2.639 67.205-2.557 97.644-15.391 37.701-15.817 66.009-49.796 104.791-62.597 43.536-14.375 95.612 3.557 121.052 41.699 15.916 23.865 21.915 53.844 40.749 75.497 30.439 34.994 84.072 37.699 122.035 64.367a113.497 113.497 0 0 1 46.978 79.775c4.049 38.191-10.458 81.578 12.441 112.426 11.179 15.031 29.292 23.505 41.323 37.864 12.032 14.358 15.359 27.34 11.589 45.616H128.215Z" fill="url(#b)"/>
  <path d="m322.438 252.913-3.475.115H5.13l-.753.099C1.262 232.31 17.49 211.166 38.06 205.593c17.932-4.918 38.914-.541 53.928-11.474 13.458-9.835 16.802-28.176 25.604-42.322A59.93 59.93 0 0 1 140 130.751c11.474-6.146 25.718-8.294 37.455-2.737 20.784 9.834 24.767 37.404 38.667 55.729 3.098 4.098 7 7.917 11.966 9.278 4.573 1.262 9.425.278 14.113-.558 15.359-2.704 33.783-2.458 43.339 9.835 4.492 5.802 6.098 13.244 8.59 20.128 2.491 6.884 6.556 13.982 13.474 16.391 3.278 1.164 7.064 1.197 9.982 3.147 3.524 2.393 4.639 6.573 4.852 10.949Z" fill="url(#c)"/>
  <path d="M827.232 292.547H461.258a14.607 14.607 0 0 1-1.196-14.326c2.704-5.983 8.343-10.048 13.965-13.424 5.623-3.377 11.606-6.556 15.818-11.474 8.081-9.654 7.606-23.504 9.393-35.962 2.098-14.752 8.294-29.504 19.473-39.338a60.902 60.902 0 0 1 14.932-9.54c15.326-7.13 34.308-8.916 48.634 0 13.703 8.589 20.424 24.931 32.373 35.831a22.45 22.45 0 0 0 9.835 5.77c10.704 2.458 19.801-7.245 27.866-14.752 11.474-10.638 26.653-18.588 42.126-16.604 18.195 2.36 32.259 18.03 39.159 34.962 2.885 7.081 5.082 14.916 10.819 19.948 14.752 12.899 39.569-1.558 56.731 7.818 6.442 3.524 10.753 9.933 14.195 16.391a118.53 118.53 0 0 1 11.851 34.7Z" fill="url(#d)"/>
  <path d="M315.193 495.583h-26.325v46.271h-63.779v-46.271h-95.333v-47.42l99.431-145.372h59.681v144.553h26.325v48.239Zm-90.153-48.239v-27.865c0-5.234.191-12.293.574-21.177.062-4.673.363-9.34.901-13.982h-1.803a172.753 172.753 0 0 1-12.589 23.554l-26.488 39.339 39.405.131Z" fill="url(#e)"/>
  <path d="M297.786 495.599h-26.341v46.272h-63.763v-46.272h-95.35V448.18l99.431-145.372h59.682V447.36h26.341v48.239Zm-90.154-48.239v-27.865c0-5.234.192-12.293.574-21.177.383-8.884.678-13.544.885-13.981h-1.737a172.96 172.96 0 0 1-12.605 23.554l-26.489 39.338 39.372.131Z" fill="url(#f)"/>
  <path d="m731.375 497.189-9.163-47.37-17.096 3.278-8.753 1.639-27.44-141.93-58.616 11.343-70.008 161.599 8.999 46.567 93.612-18.112 5.327 27.586h64.96l-7.671-39.683 8.753-1.639 17.096-3.278Zm-114.741-26.947-21.587 4.163 15.408-36.355 3.114-7.36a173.413 173.413 0 0 0 7.884-25.52l1.771-.328c.354 4.66.945 9.299 1.77 13.899 1.311 8.742 2.464 15.708 3.458 20.899l5.279 27.291-17.097 3.311Z" fill="url(#g)"/>
  <path d="m714.279 500.5-9.163-47.354-25.849 4.999-27.456-141.929-41.503 8.015-17.097 3.278-70.008 161.615 8.999 46.551 17.096-3.278 76.516-14.752 4.688 24.259h64.96l-7.032-36.372 17.096-3.278 8.753-1.754Zm-103.807-62.45c.311 1.787.623 3.409.901 4.917l5.278 27.291-38.7 7.491 18.539-43.748a172.7 172.7 0 0 0 7.884-25.504l1.77-.344c.353 4.66.944 9.299 1.771 13.899.934 6.262 1.786 11.605 2.557 15.998Z" fill="url(#h)"/>
  <path d="M324.093 420.61h-38.929l-24.702-181.072s-35.75-39.043-76.778-46.353l39.077-4.246 88.072 2.393 13.26 229.278Z" fill="url(#i)"/>
  <path d="M170.423 321.051s-22.129 32.372-12.294 60.188l41.159-60.188-5.343-7.179-23.522 7.179ZM285.165 420.61l-1.328 8.359s-11.736 1.64-12.392 18.391h30.521l16.572-16.178 1.541-10.572h-34.914Z" fill="#111023"/>
  <path d="m238.055 239.374-48.798-1.819 7.933 74.727-33.078 11.85-19.063-92.281a28.528 28.528 0 0 1 3.199-24.278 28.534 28.534 0 0 1 20.847-12.848l14.54-1.639c41.044 7.376 76.827 46.452 76.827 46.452l-22.407-.164Z" fill="url(#j)"/>
  <path d="M148.197 30.799v2.212l-2.639.345a10.192 10.192 0 0 0-2.131-3.279c-3.524-3.032-5.983-5.441-8.507-3.966-1.902 1.098-1.754 6.327-1.64 8.786l-7.195.917-63.747 8.081v-.115c4.13-.967 7.343-8.392 7.343-17.407S66.567 10.146 62.518 9l85.662 9.654v12.178l.017-.032Z" fill="url(#k)"/>
  <path d="M67.124 13.637a8.09 8.09 0 0 0-.492.803 46.51 46.51 0 0 1-2.475 5.459 7.343 7.343 0 0 1-3.393 2.671 19.04 19.04 0 0 1-4.524.87 10.215 10.215 0 0 0-3 .753c.476-8.507 3.836-15.129 7.966-15.342L62.535 9a8.196 8.196 0 0 1 4.59 4.638Z" fill="url(#l)"/>
  <path d="M69.665 24.914c-1.05 1.41-1.558 3.164-2.541 4.606a8.195 8.195 0 0 1-5 3.491c-1.835.41-3.835.18-5.524 1.033a5.442 5.442 0 0 0-2.065 1.934 33.193 33.193 0 0 1-1.36-9.638c0-.737 0-1.458.082-2.18a10.209 10.209 0 0 1 3-.754 19.045 19.045 0 0 0 4.523-.868 7.343 7.343 0 0 0 3.377-2.64 46.536 46.536 0 0 0 2.475-5.425c.148-.277.313-.545.492-.803a28.141 28.141 0 0 1 2.54 11.244Z" fill="url(#m)"/>
  <path d="M69.698 26.34c0 9.015-3.278 16.391-7.343 17.408-.305.08-.62.118-.935.114-2.885 0-5.425-3.13-6.9-7.884a5.441 5.441 0 0 1 2.065-1.934c1.639-.852 3.688-.623 5.524-1.032a8.196 8.196 0 0 0 4.917-3.41c.984-1.442 1.492-3.278 2.54-4.606.116.377.132.853.132 1.344Z" fill="url(#n)"/>
  <path d="M198.682 22.046H224.4a21.682 21.682 0 0 0-6.016 3.278c-.819.754-.459 2.115.541 3.885h-20.243v-7.163ZM255.806 26.455v2.852h-13.965a53.175 53.175 0 0 1-2.689-7.261h16.654v4.41Z" fill="#111023"/>
  <path d="M198.683 29.225v1.59h-50.486V20.358h50.486v8.867Z" fill="url(#o)"/>
  <path d="m150.196 48.649-11.032 8.457s-13.49-14.145-12.949-21.308l7.196-.918c-.164-2.459-.311-7.687 1.639-8.786 2.524-1.475 4.918.935 8.507 3.967a10.175 10.175 0 0 1 2.131 3.278 88.993 88.993 0 0 1 4.508 15.31Z" fill="url(#p)"/>
  <path d="M75.418 9.031c-.754-1.639-3.147-.245-2.41 1.36a32.78 32.78 0 0 1-1.491 30.521 1.393 1.393 0 0 0 2.393 1.393 35.797 35.797 0 0 0 1.508-33.274Z" fill="#5B2B89"/>
  <path d="M273.347 59.827V68.4l-10.261-9.704 10.261 1.131Z" fill="url(#q)"/>
  <path d="m273.346 68.383 10.343 9.835 9.835 9.31s22.669-15.9 31.357-16.03a9.078 9.078 0 0 1 1.786.13c7.737 1.083 12.458 10.032 11.114 18.605-1.475 9.228-1.213 19.456-10.097 21.111-8.885 1.656-48.093 11.179-48.093 11.179l-42.913-58.205 5.065-3.442 11.261-7.884 2.278-1.639 4.918 4.672 2.868 2.704 10.278 9.654Z" fill="url(#r)"/>
  <path d="m301.047 61.597 25.62 10.032a9.078 9.078 0 0 0-1.786-.131c-8.753.13-31.341 15.948-31.341 15.948l-9.835-9.31 17.342-16.538Z" fill="url(#s)"/>
  <path d="m327.668 111.344-14.883 40.519-2 39.469s-1.738.312-4.77.738c-14.195 2.016-56.715 6.868-83.302-3.131l10.36-49.025-4.787-38.667-57.78 6.393-36.258-46.764 4.918-3.77 11.113-8.458 34.193 33.537 53.633-23.44a20.737 20.737 0 0 0 3.639 2.131l-5.065 3.524 42.913 58.205s39.192-9.589 48.076-11.261Z" fill="url(#t)"/>
  <path d="m253.004 52.91-11.261 7.966a20.753 20.753 0 0 1-3.639-2.098 12.996 12.996 0 0 1-5.917-9.048c-.475-5.67-10.064-14.915-13.195-20.423-1-1.77-1.361-3.13-.541-3.884a21.66 21.66 0 0 1 6.015-3.279c5.951-2.36 13.884-3.966 14.605-.295.02.1.047.2.082.295a53.242 53.242 0 0 0 2.689 7.18c4.081 9.408 11.162 23.586 11.162 23.586Z" fill="url(#u)"/>
  <path style="mix-blend-mode:overlay" opacity=".38" d="M312.8 151.863c-65.648-13.949-76.122-87.545-76.122-87.545l42.913 58.238 48.076-11.212-14.867 40.519Z" fill="url(#v)"/>
  <path d="M300.67 25.816a2.476 2.476 0 0 1 3.36 2.114c1.295 5.081-4.393 11.163-4.393 11.163l1.41 22.504-17.359 16.539 6.786-19.44-17.129 1.115-10.244-1.115-2.869-2.737s-2-18.637-2-29.504a34.11 34.11 0 0 1 .377-6.015l.082-.541c11.999 2.032 28.653-2.656 28.653-2.656s2.344 22.735 5.524 23.128c3.18.393 4.196-12.359 4.196-12.359a10.8 10.8 0 0 1 3.606-2.196Z" fill="url(#w)"/>
  <path d="m300.818 9.294-.148 16.522a10.804 10.804 0 0 0-3.606 2.114s-1 12.752-4.196 12.36c-3.196-.394-5.524-23.129-5.524-23.129S270.69 21.85 258.692 19.9a16.03 16.03 0 0 1-9.245-4.213c-9.179-9.67-5.999-15.161 7.163-12.162 13.162 3 40.422-12.949 44.208 5.77Z" fill="#111023"/>
  <path d="m290.475 58.696-6.803 19.456-10.326-9.752v-8.573l17.129-1.13Z" fill="#F79244"/>
  <path d="M257.544 22.816a10.002 10.002 0 0 1 8.196-.475c1.639.606.426 3.098-1.262 2.508a6.823 6.823 0 0 0-5.377.328c-1.623.786-3.163-1.541-1.557-2.36ZM283.17 32.49c1.112-.057 1.944-1.438 1.858-3.084-.086-1.645-1.057-2.932-2.169-2.873-1.112.058-1.944 1.438-1.858 3.084.086 1.645 1.057 2.932 2.169 2.874ZM286.557 22.144a10.097 10.097 0 0 0-8.196.377c-1.639.787-.082 3.131 1.525 2.36a6.884 6.884 0 0 1 5.376-.229c1.688.623 3.065-1.869 1.295-2.508Z" fill="#111023"/>
  <path d="M267.1 38.716c.902-4.246 3.082-8.556 4.573-12.622.312-.852 1.639-.213 1.246.64l-2.803 7.687a19.012 19.012 0 0 0-1.196 3.278c-.296 3.279 1.163 2.934 2.819 3.705.819.393.18 1.639-.639 1.262-2.033-.918-4.606-1.05-4-3.95Z" fill="#F79244"/>
  <path d="M265.56 29.815a8.916 8.916 0 0 0-4.475-1.967c-1.033-.13-1.459 1.46-.41 1.64a8.07 8.07 0 0 1 2.393.72l-2.622.853c-1 .311-.59 1.901.426 1.64l4.311-1.394c.524-.295.885-1.082.377-1.492Z" fill="#111023"/>
  <path d="M272.33 56.483c2.01 0 3.639-2.355 3.639-5.261s-1.629-5.262-3.639-5.262c-2.009 0-3.639 2.356-3.639 5.262 0 2.906 1.63 5.261 3.639 5.261Z" fill="#fff"/>
  <path style="mix-blend-mode:multiply" opacity=".5" d="M774.747 541.871H117.02s-35.389 23.505 17.228 27.471c52.617 3.967 134.689 7.737 132.656 25.636-2.032 17.899-49.535 14.375-49.535 45.895 0 31.52 219.155 24.307 219.155 24.307s123.805 1.64 141.426-19.292c17.621-20.931-49.896-40.076-37.7-48.337 12.195-8.261 101.25 16.506 114.511-3.54 13.261-20.047-2.639-32.7 21.817-35.356 24.456-2.655 94.055 7.065 98.169-16.784Z" fill="url(#x)"/>
  <path d="M725.015 597.649c27.466 0 49.732-6.333 49.732-14.145 0-7.812-22.266-14.145-49.732-14.145s-49.732 6.333-49.732 14.145c0 7.812 22.266 14.145 49.732 14.145Z" fill="url(#y)"/>
  <path d="M195.552 606.484c24.008 0 43.471-4.814 43.471-10.752 0-5.939-19.463-10.753-43.471-10.753-24.008 0-43.47 4.814-43.47 10.753 0 5.938 19.462 10.752 43.47 10.752Z" fill="url(#z)"/>
  <path d="M444.703 647.15c27.267 0 49.372-4.256 49.372-9.507 0-5.25-22.105-9.506-49.372-9.506s-49.371 4.256-49.371 9.506c0 5.251 22.104 9.507 49.371 9.507Z" fill="#E9FDFF"/>
  <path d="M509.99 415.398c-10.13-23.155-29.127-37.579-56.993-43.273a114.097 114.097 0 0 0-8.901-1.475c-24.587-3.114-44.863 2.754-60.829 17.604-17.866 16.588-31.056 45.693-39.569 87.315-5.212 25.515-6.666 47.594-4.36 66.236h60.911c-.765-10.927 1.377-28.717 6.425-53.369 5.464-26.695 10.874-44.726 16.228-54.09 3.115-5.464 6.639-9.054 10.573-10.769a14.75 14.75 0 0 1 9.163-.885c7.802 1.606 12.293 7.949 13.473 19.03 1.181 11.08-.879 29.602-6.179 55.565-3.978 19.462-7.972 34.307-11.982 44.535h66.746a293.873 293.873 0 0 0 8.196-31.668c1.551-7.649 2.775-14.959 3.671-21.931 3.825-29.799 1.634-54.074-6.573-72.825Z" fill="url(#A)"/>
  <path d="M492.927 411.923c-9.092-20.795-25.385-34.547-48.88-41.256a109.47 109.47 0 0 0-8.195-2c-28.62-5.857-51.863-.481-69.73 16.129-17.867 16.609-31.051 45.736-39.553 87.38-1.737 8.469-3.054 16.571-3.95 24.308a171.01 171.01 0 0 0 0 45.403h60.829a13.932 13.932 0 0 1-.18-1.196c-1.279-10.611.786-29.187 6.196-55.73 5.463-26.695 10.878-44.725 16.244-54.09 5.365-9.365 11.922-13.25 19.669-11.654a14.345 14.345 0 0 1 7.901 4.343c3.033 3.279 4.918 8.196 5.573 14.67 1.18 11.092-.879 29.613-6.179 55.566-4.459 21.767-8.934 37.77-13.425 48.009h67.09a296.82 296.82 0 0 0 9.491-35.093c8.185-40.038 7.218-71.634-2.901-94.789Z" fill="url(#B)"/>
  <path d="m539.43 255.716-.409.328-42.831 33.323-26.735 20.817-22.26 61.581-6.179-2.213 22.931-63.401 71.468-55.614 4.015 5.179Z" fill="#2A2A2A"/>
  <path d="M559.951 393.958c-4.917 5.786-11.474 9.835-18.03 13.605l-.443-.771c2.574-3.278 5.295-7.162 4.524-11.277a13.216 13.216 0 0 0-4.721-6.917c-3.589-3.163-7.589-5.835-11.015-9.162a21.206 21.206 0 0 1-6.884-12.244c-.721-6.229 2.639-12.113 3.95-18.244a12.346 12.346 0 0 0-.278-7.392c-2.197-5.212-8.835-6.409-14.097-8.507-4.705-1.901-9.13-5.425-10.442-10.326-1.901-7.114 3.164-14.391 2.476-21.718a14.447 14.447 0 0 0-8.819-11.638l42.831-33.339c7.261 6.294 13.523 14.637 13.605 24.16 0 6.032-2.41 11.769-4.147 17.539a15.638 15.638 0 0 0-.852 7.13c.672 3.638 3.573 6.392 6.245 8.966 5.524 5.294 11.08 11.735 10.982 19.39-.098 8.589-7.425 16.244-6.147 24.734.82 5.426 5 9.753 6.672 14.965 2.311 7.212-.541 15.26-5.41 21.046Z" fill="url(#C)"/>
  <defs>
    <linearGradient id="a" x1="407.855" y1="564.835" x2="434.375" y2="164.385" gradientUnits="userSpaceOnUse">
      <stop stop-color="#31D1D6"/>
      <stop offset=".37" stop-color="#32CED8"/>
      <stop offset=".62" stop-color="#36C6DF"/>
      <stop offset=".82" stop-color="#3CB7EB"/>
      <stop offset="1" stop-color="#45A3FA"/>
    </linearGradient>
    <linearGradient id="b" x1="429.409" y1="564.835" x2="455.929" y2="164.385" gradientUnits="userSpaceOnUse">
      <stop stop-color="#31D1D6"/>
      <stop offset=".37" stop-color="#32CED8"/>
      <stop offset=".62" stop-color="#36C6DF"/>
      <stop offset=".82" stop-color="#3CB7EB"/>
      <stop offset="1" stop-color="#45A3FA"/>
    </linearGradient>
    <linearGradient id="c" x1="163.21" y1="254.241" x2="163.21" y2="184.399" gradientUnits="userSpaceOnUse">
      <stop stop-color="#F9E6D9"/>
      <stop offset=".12" stop-color="#FCF1EA"/>
      <stop offset=".27" stop-color="#FEF9F6"/>
      <stop offset=".48" stop-color="#FFFEFD"/>
      <stop offset="1" stop-color="#E2FCFF"/>
    </linearGradient>
    <linearGradient id="d" x1="642.008" y1="303.267" x2="646.433" y2="235.195" gradientUnits="userSpaceOnUse">
      <stop stop-color="#F9E6D9"/>
      <stop offset=".12" stop-color="#FCF1EA"/>
      <stop offset=".27" stop-color="#FEF9F6"/>
      <stop offset=".48" stop-color="#FFFEFD"/>
      <stop offset="1" stop-color="#E2FCFF"/>
    </linearGradient>
    <linearGradient id="e" x1="129.756" y1="422.331" x2="315.193" y2="422.331" gradientUnits="userSpaceOnUse">
      <stop stop-color="#31D1D6"/>
      <stop offset=".37" stop-color="#32CED8"/>
      <stop offset=".62" stop-color="#36C6DF"/>
      <stop offset=".82" stop-color="#3CB7EB"/>
      <stop offset="1" stop-color="#45A3FA"/>
    </linearGradient>
    <linearGradient id="f" x1="206.747" y1="557.606" x2="204.977" y2="467.439" gradientUnits="userSpaceOnUse">
      <stop stop-color="#F9E6D9"/>
      <stop offset=".12" stop-color="#FCF1EA"/>
      <stop offset=".27" stop-color="#FEF9F6"/>
      <stop offset=".48" stop-color="#FFFEFD"/>
      <stop offset="1" stop-color="#fff"/>
    </linearGradient>
    <linearGradient id="g" x1="533.526" y1="456.573" x2="715.27" y2="421.335" gradientUnits="userSpaceOnUse">
      <stop stop-color="#31D1D6"/>
      <stop offset=".37" stop-color="#32CED8"/>
      <stop offset=".62" stop-color="#36C6DF"/>
      <stop offset=".82" stop-color="#3CB7EB"/>
      <stop offset="1" stop-color="#45A3FA"/>
    </linearGradient>
    <linearGradient id="h" x1="619.815" y1="549.509" x2="618.045" y2="459.342" gradientUnits="userSpaceOnUse">
      <stop stop-color="#F9E6D9"/>
      <stop offset=".12" stop-color="#FCF1EA"/>
      <stop offset=".27" stop-color="#FEF9F6"/>
      <stop offset=".48" stop-color="#FFFEFD"/>
      <stop offset="1" stop-color="#fff"/>
    </linearGradient>
    <linearGradient id="i" x1="247.774" y1="308.463" x2="300.227" y2="294.906" gradientUnits="userSpaceOnUse">
      <stop stop-color="#31D1D6"/>
      <stop offset=".37" stop-color="#32CED8"/>
      <stop offset=".62" stop-color="#36C6DF"/>
      <stop offset=".82" stop-color="#3CB7EB"/>
      <stop offset="1" stop-color="#45A3FA"/>
    </linearGradient>
    <linearGradient id="j" x1="143.656" y1="258.634" x2="260.429" y2="258.634" gradientUnits="userSpaceOnUse">
      <stop stop-color="#31D1D6"/>
      <stop offset=".37" stop-color="#32CED8"/>
      <stop offset=".62" stop-color="#36C6DF"/>
      <stop offset=".82" stop-color="#3CB7EB"/>
      <stop offset="1" stop-color="#45A3FA"/>
    </linearGradient>
    <linearGradient id="k" x1="62.354" y1="26.406" x2="148.197" y2="26.406" gradientUnits="userSpaceOnUse">
      <stop stop-color="#51ADC6"/>
      <stop offset=".01" stop-color="#55AFC4"/>
      <stop offset=".07" stop-color="#74BFB5"/>
      <stop offset=".13" stop-color="#8FCDA7"/>
      <stop offset=".21" stop-color="#A5D89D"/>
      <stop offset=".3" stop-color="#B6E194"/>
      <stop offset=".41" stop-color="#C1E78E"/>
      <stop offset=".57" stop-color="#C8EA8B"/>
      <stop offset="1" stop-color="#CAEB8A"/>
    </linearGradient>
    <linearGradient id="l" x1="67.124" y1="16.489" x2="53.24" y2="16.489" gradientUnits="userSpaceOnUse">
      <stop stop-color="#8AEBD6"/>
      <stop offset=".46" stop-color="#89E9D7"/>
      <stop offset=".63" stop-color="#84E2DA"/>
      <stop offset=".75" stop-color="#7DD7DE"/>
      <stop offset=".84" stop-color="#72C6E5"/>
      <stop offset=".92" stop-color="#64B0EE"/>
      <stop offset=".99" stop-color="#5395F9"/>
      <stop offset="1" stop-color="#5193FA"/>
    </linearGradient>
    <linearGradient id="m" x1="69.665" y1="24.8" x2="53.158" y2="24.8" gradientUnits="userSpaceOnUse">
      <stop stop-color="#31D1D6"/>
      <stop offset=".37" stop-color="#32CED8"/>
      <stop offset=".62" stop-color="#36C6DF"/>
      <stop offset=".82" stop-color="#3CB7EB"/>
      <stop offset="1" stop-color="#45A3FA"/>
    </linearGradient>
    <linearGradient id="n" x1="69.698" y1="34.388" x2="54.52" y2="34.388" gradientUnits="userSpaceOnUse">
      <stop stop-color="#8AEBD6"/>
      <stop offset=".46" stop-color="#89E9D7"/>
      <stop offset=".63" stop-color="#84E2DA"/>
      <stop offset=".75" stop-color="#7DD7DE"/>
      <stop offset=".84" stop-color="#72C6E5"/>
      <stop offset=".92" stop-color="#64B0EE"/>
      <stop offset=".99" stop-color="#5395F9"/>
      <stop offset="1" stop-color="#5193FA"/>
    </linearGradient>
    <linearGradient id="o" x1="148.197" y1="25.586" x2="198.683" y2="25.586" gradientUnits="userSpaceOnUse">
      <stop stop-color="#31D1D6"/>
      <stop offset=".37" stop-color="#32CED8"/>
      <stop offset=".62" stop-color="#36C6DF"/>
      <stop offset=".82" stop-color="#3CB7EB"/>
      <stop offset="1" stop-color="#45A3FA"/>
    </linearGradient>
    <linearGradient id="p" x1="126.117" y1="41.371" x2="150.196" y2="41.371" gradientUnits="userSpaceOnUse">
      <stop stop-color="#F7BE86"/>
      <stop offset=".33" stop-color="#F7BC83"/>
      <stop offset=".54" stop-color="#F7B67B"/>
      <stop offset=".73" stop-color="#F7AC6C"/>
      <stop offset=".89" stop-color="#F79E57"/>
      <stop offset="1" stop-color="#F79244"/>
    </linearGradient>
    <linearGradient id="q" x1="268.315" y1="59.778" x2="267.528" y2="88.741" gradientUnits="userSpaceOnUse">
      <stop stop-color="#7B6ED6"/>
      <stop offset=".48" stop-color="#796DD5"/>
      <stop offset=".65" stop-color="#7268D0"/>
      <stop offset=".78" stop-color="#6760C9"/>
      <stop offset=".88" stop-color="#5655BE"/>
      <stop offset=".96" stop-color="#4047B0"/>
      <stop offset="1" stop-color="#333EA8"/>
    </linearGradient>
    <linearGradient id="r" x1="287.852" y1="60.155" x2="285.721" y2="127.375" gradientUnits="userSpaceOnUse">
      <stop stop-color="#7B6ED6"/>
      <stop offset=".48" stop-color="#796DD5"/>
      <stop offset=".65" stop-color="#7268D0"/>
      <stop offset=".78" stop-color="#6760C9"/>
      <stop offset=".88" stop-color="#5655BE"/>
      <stop offset=".96" stop-color="#4047B0"/>
      <stop offset="1" stop-color="#333EA8"/>
    </linearGradient>
    <linearGradient id="s" x1="305.571" y1="60.794" x2="304.768" y2="89.757" gradientUnits="userSpaceOnUse">
      <stop stop-color="#7B6ED6"/>
      <stop offset=".48" stop-color="#796DD5"/>
      <stop offset=".65" stop-color="#7268D0"/>
      <stop offset=".78" stop-color="#6760C9"/>
      <stop offset=".88" stop-color="#5655BE"/>
      <stop offset=".96" stop-color="#4047B0"/>
      <stop offset="1" stop-color="#333EA8"/>
    </linearGradient>
    <linearGradient id="t" x1="134.248" y1="121.851" x2="327.685" y2="121.851" gradientUnits="userSpaceOnUse">
      <stop stop-color="#7B6ED6"/>
      <stop offset=".48" stop-color="#796DD5"/>
      <stop offset=".65" stop-color="#7268D0"/>
      <stop offset=".78" stop-color="#6760C9"/>
      <stop offset=".88" stop-color="#5655BE"/>
      <stop offset=".96" stop-color="#4047B0"/>
      <stop offset="1" stop-color="#333EA8"/>
    </linearGradient>
    <linearGradient id="u" x1="217.992" y1="40.191" x2="253.004" y2="40.191" gradientUnits="userSpaceOnUse">
      <stop stop-color="#F7BE86"/>
      <stop offset=".33" stop-color="#F7BC83"/>
      <stop offset=".54" stop-color="#F7B67B"/>
      <stop offset=".73" stop-color="#F7AC6C"/>
      <stop offset=".89" stop-color="#F79E57"/>
      <stop offset="1" stop-color="#F79244"/>
    </linearGradient>
    <linearGradient id="v" x1="236.678" y1="108.099" x2="327.684" y2="108.099" gradientUnits="userSpaceOnUse">
      <stop stop-color="#3C0887"/>
      <stop offset=".32" stop-color="#3F0987"/>
      <stop offset=".53" stop-color="#470E87"/>
      <stop offset=".71" stop-color="#561588"/>
      <stop offset=".87" stop-color="#6B1F89"/>
      <stop offset="1" stop-color="#822A8A"/>
    </linearGradient>
    <linearGradient id="w" x1="258.232" y1="47.649" x2="304.227" y2="47.649" gradientUnits="userSpaceOnUse">
      <stop stop-color="#F7BE86"/>
      <stop offset=".33" stop-color="#F7BC83"/>
      <stop offset=".54" stop-color="#F7B67B"/>
      <stop offset=".73" stop-color="#F7AC6C"/>
      <stop offset=".89" stop-color="#F79E57"/>
      <stop offset="1" stop-color="#F79244"/>
    </linearGradient>
    <linearGradient id="x" x1="438.311" y1="670.442" x2="440.081" y2="548.444" gradientUnits="userSpaceOnUse">
      <stop stop-color="#8AEBD6"/>
      <stop offset=".46" stop-color="#89E9D7"/>
      <stop offset=".63" stop-color="#84E2DA"/>
      <stop offset=".75" stop-color="#7DD7DE"/>
      <stop offset=".84" stop-color="#72C6E5"/>
      <stop offset=".92" stop-color="#64B0EE"/>
      <stop offset=".99" stop-color="#5395F9"/>
      <stop offset="1" stop-color="#5193FA"/>
    </linearGradient>
    <linearGradient id="y" x1="725.015" y1="662.623" x2="725.015" y2="555.213" gradientUnits="userSpaceOnUse">
      <stop stop-color="#8AEBD6"/>
      <stop offset=".46" stop-color="#89E9D7"/>
      <stop offset=".63" stop-color="#84E2DA"/>
      <stop offset=".75" stop-color="#7DD7DE"/>
      <stop offset=".84" stop-color="#72C6E5"/>
      <stop offset=".92" stop-color="#64B0EE"/>
      <stop offset=".99" stop-color="#5395F9"/>
      <stop offset="1" stop-color="#5193FA"/>
    </linearGradient>
    <linearGradient id="z" x1="195.552" y1="662.623" x2="195.552" y2="555.213" gradientUnits="userSpaceOnUse">
      <stop stop-color="#8AEBD6"/>
      <stop offset=".46" stop-color="#89E9D7"/>
      <stop offset=".63" stop-color="#84E2DA"/>
      <stop offset=".75" stop-color="#7DD7DE"/>
      <stop offset=".84" stop-color="#72C6E5"/>
      <stop offset=".92" stop-color="#64B0EE"/>
      <stop offset=".99" stop-color="#5395F9"/>
      <stop offset="1" stop-color="#5193FA"/>
    </linearGradient>
    <linearGradient id="A" x1="349.48" y1="447.432" x2="518.667" y2="482.008" gradientUnits="userSpaceOnUse">
      <stop stop-color="#31D1D6"/>
      <stop offset=".37" stop-color="#32CED8"/>
      <stop offset=".62" stop-color="#36C6DF"/>
      <stop offset=".82" stop-color="#3CB7EB"/>
      <stop offset="1" stop-color="#45A3FA"/>
    </linearGradient>
    <linearGradient id="B" x1="412.526" y1="553.574" x2="410.756" y2="463.407" gradientUnits="userSpaceOnUse">
      <stop stop-color="#F9E6D9"/>
      <stop offset=".12" stop-color="#FCF1EA"/>
      <stop offset=".27" stop-color="#FEF9F6"/>
      <stop offset=".48" stop-color="#FFFEFD"/>
      <stop offset="1" stop-color="#fff"/>
    </linearGradient>
    <linearGradient id="C" x1="496.188" y1="331.803" x2="566.18" y2="331.803" gradientUnits="userSpaceOnUse">
      <stop stop-color="#7B6ED6"/>
      <stop offset=".48" stop-color="#796DD5"/>
      <stop offset=".65" stop-color="#7268D0"/>
      <stop offset=".78" stop-color="#6760C9"/>
      <stop offset=".88" stop-color="#5655BE"/>
      <stop offset=".96" stop-color="#4047B0"/>
      <stop offset="1" stop-color="#333EA8"/>
    </linearGradient>
  </defs>
</svg>
