<svg width="80" height="80" viewBox="0 0 80 80" fill="none" xmlns="http://www.w3.org/2000/svg">
<path d="M17.3514 0.0828857C15.8165 0.483383 14.4651 1.58475 13.7643 3.01986C13.4307 3.72073 13.3472 4.1546 13.2972 5.89008L13.2304 7.90926L9.10949 7.97601L4.98853 8.02607L3.72054 8.6435C2.20229 9.39443 1.26799 10.3623 0.533889 11.9142L0 13.0323V41.334V69.6191L0.61731 70.8874C1.36809 72.4059 2.33577 73.3404 3.88738 74.0746L5.00521 74.6086L24.7424 74.6587L44.4797 74.6921L44.8801 74.2916C45.4307 73.7409 45.4307 72.9733 44.8801 72.4393L44.4797 72.0221H25.2596C10.6611 72.0221 5.87278 71.972 5.35558 71.8219C4.43796 71.5549 3.05318 70.1698 2.78624 69.252C2.63608 68.718 2.58603 63.5783 2.58603 47.5918V26.6325H39.9583H77.3306V38.2302V49.8446L77.7477 50.2451C78.2815 50.7958 79.049 50.7958 79.5996 50.2451L80 49.8279L79.9666 31.4384L79.9166 13.0323L79.3827 11.9142C78.6486 10.3623 77.7143 9.39443 76.196 8.6435L74.928 8.02607L70.8071 7.97601L66.6861 7.90926L66.6194 5.89008C66.5527 3.95435 66.5193 3.80417 65.9854 2.80293C65.3848 1.6515 64.6674 0.984001 63.4828 0.39994C62.3816 -0.134048 60.2127 -0.117363 59.0615 0.433319C57.9937 0.95063 56.9927 1.95187 56.4755 3.01986C56.1418 3.73742 56.0584 4.1546 56.0083 5.89008L55.9416 7.94263H50.6361H45.3306L45.2638 5.89008C45.1971 3.95435 45.1637 3.80417 44.6298 2.80293C44.0292 1.6515 43.3118 0.984001 42.1272 0.39994C41.0261 -0.134048 38.8571 -0.117363 37.7059 0.433319C36.6382 0.95063 35.6371 1.95187 35.1199 3.01986C34.7862 3.73742 34.7028 4.1546 34.6528 5.89008L34.586 7.94263H29.2805H23.975L23.9082 5.89008C23.8415 3.95435 23.8081 3.80417 23.2742 2.80293C22.3566 1.06744 20.9051 0.13295 18.9531 0.0161362C18.3525 -0.0172424 17.635 -0.000549316 17.3514 0.0828857ZM20.0709 3.05324C20.3045 3.22011 20.6548 3.58723 20.8384 3.83754C21.1721 4.27142 21.1887 4.50504 21.1887 9.27762C21.1887 14.0502 21.1721 14.2838 20.8384 14.7177C20.1877 15.6021 19.6538 15.8691 18.6027 15.8691C17.5516 15.8691 17.0177 15.6021 16.367 14.7177C16.0334 14.2838 16.0167 14.0001 15.9666 9.72818C15.9333 7.22507 15.9666 4.9556 16.0167 4.65522C16.1335 3.98772 16.8342 3.13667 17.5182 2.8363C18.1856 2.51924 19.5203 2.63605 20.0709 3.05324ZM41.4265 3.05324C41.6601 3.22011 42.0104 3.58723 42.194 3.83754C42.5276 4.27142 42.5443 4.50504 42.5443 9.27762C42.5443 14.0502 42.5276 14.2838 42.194 14.7177C41.5433 15.6021 41.0094 15.8691 39.9583 15.8691C38.9072 15.8691 38.3733 15.6021 37.7226 14.7177C37.3889 14.2838 37.3723 14.0001 37.3222 9.72818C37.2888 7.22507 37.3222 4.9556 37.3723 4.65522C37.4891 3.98772 38.1898 3.13667 38.8738 2.8363C39.5412 2.51924 40.8759 2.63605 41.4265 3.05324ZM62.7821 3.05324C63.0156 3.22011 63.366 3.58723 63.5495 3.83754C63.8832 4.27142 63.8999 4.50504 63.8999 9.27762C63.8999 14.0502 63.8832 14.2838 63.5495 14.7177C62.8989 15.6021 62.365 15.8691 61.3139 15.8691C60.2628 15.8691 59.7289 15.6021 59.0782 14.7177C58.7445 14.2838 58.7278 14.0001 58.6778 9.72818C58.6444 7.22507 58.6778 4.9556 58.7278 4.65522C58.8446 3.98772 59.5454 3.13667 60.2294 2.8363C60.8968 2.51924 62.2315 2.63605 62.7821 3.05324ZM13.2972 12.6485C13.3639 14.3172 13.4473 14.8512 13.731 15.4519C14.2982 16.6367 14.9823 17.3376 16.1335 17.9717C17.1011 18.489 17.3014 18.5391 18.6027 18.5391C19.9041 18.5391 20.1043 18.489 21.072 17.9717C22.2398 17.3376 22.757 16.8036 23.391 15.5521C23.7748 14.8011 23.8415 14.4507 23.9082 12.6485L23.975 10.6126H29.2805H34.586L34.6528 12.6485C34.7195 14.3172 34.8029 14.8512 35.0865 15.4519C35.6538 16.6367 36.3379 17.3376 37.4891 17.9717C38.4567 18.489 38.6569 18.5391 39.9583 18.5224C41.1595 18.5224 41.5099 18.4557 42.2273 18.0885C43.4953 17.4211 44.0125 16.9204 44.6298 15.7523C45.1637 14.7511 45.1971 14.6009 45.2638 12.6485L45.3306 10.6126H50.6361H55.9416L56.0083 12.6485C56.0751 14.3172 56.1585 14.8512 56.4421 15.4519C57.0094 16.6367 57.6934 17.3376 58.8446 17.9717C59.8123 18.489 60.0125 18.5391 61.3139 18.5391C62.6152 18.5391 62.8154 18.489 63.7831 17.9717C64.951 17.3376 65.4682 16.8036 66.1022 15.5521C66.4859 14.8011 66.5527 14.4507 66.6194 12.6485L66.6861 10.6126H70.2899C72.609 10.6126 74.1105 10.6794 74.561 10.8129C75.4786 11.0799 76.8634 12.4649 77.1303 13.3827C77.2638 13.85 77.3306 15.6188 77.3306 19.023V23.9625H39.9583H2.58603V19.023C2.58603 15.6188 2.65276 13.85 2.78624 13.3827C3.0365 12.5317 4.43796 11.0965 5.25547 10.8295C5.60584 10.7294 7.35766 10.646 9.52659 10.6293L13.2304 10.6126L13.2972 12.6485Z" fill="#288DC8"/>
<path d="M12.1793 33.541C11.4952 33.8414 10.7945 34.6925 10.6777 35.36C10.611 35.6603 10.5943 37.0454 10.6276 38.4304C10.6777 41.1839 10.7611 41.4342 11.8289 42.2185C12.2627 42.5522 12.5129 42.5689 15.9332 42.5689C19.3534 42.5689 19.6037 42.5522 20.0374 42.2185C21.1553 41.4008 21.1886 41.2506 21.1886 37.9799C21.1886 35.2265 21.1553 34.9595 20.8383 34.5423C20.0041 33.4242 19.9207 33.3909 16.1334 33.3575C13.514 33.3241 12.563 33.3575 12.1793 33.541ZM18.6026 37.9799V39.9824H15.9332H13.2637V37.9799V35.9774H15.9332H18.6026V37.9799Z" fill="#288DC8"/>
<path d="M28.1961 33.541C27.5121 33.8414 26.8113 34.6925 26.6945 35.36C26.6278 35.6603 26.6111 37.0454 26.6445 38.4304C26.6945 41.1839 26.778 41.4342 27.8457 42.2185C28.2795 42.5522 28.5298 42.5689 31.95 42.5689C35.3702 42.5689 35.6205 42.5522 36.0543 42.2185C37.1721 41.4008 37.2055 41.2506 37.2055 37.9799C37.2055 35.2265 37.1721 34.9595 36.8551 34.5423C36.0209 33.4242 35.9375 33.3909 32.1502 33.3575C29.5308 33.3241 28.5798 33.3575 28.1961 33.541ZM34.6195 37.9799V39.9824H31.95H29.2806V37.9799V35.9774H31.95H34.6195V37.9799Z" fill="#288DC8"/>
<path d="M44.2126 33.541C43.5286 33.8414 42.8279 34.6925 42.7111 35.36C42.6443 35.6603 42.6277 37.0454 42.661 38.4304C42.7111 41.1839 42.7945 41.4342 43.8623 42.2185C44.2961 42.5522 44.5463 42.5689 47.9666 42.5689C51.3868 42.5689 51.637 42.5522 52.0708 42.2185C53.1887 41.4008 53.222 41.2506 53.222 37.9799C53.222 35.2265 53.1887 34.9595 52.8717 34.5423C52.0375 33.4242 51.954 33.3909 48.1668 33.3575C45.5474 33.3241 44.5964 33.3575 44.2126 33.541ZM50.636 37.9799V39.9824H47.9666H45.2971V37.9799V35.9774H47.9666H50.636V37.9799Z" fill="#288DC8"/>
<path d="M60.2295 33.541C59.5454 33.8414 58.8447 34.6925 58.7279 35.36C58.6612 35.6603 58.6445 37.0454 58.6779 38.4304C58.7279 41.1839 58.8114 41.4342 59.8791 42.2185C60.3129 42.5522 60.5632 42.5689 63.9834 42.5689C67.4036 42.5689 67.6539 42.5522 68.0877 42.2185C69.2055 41.4008 69.2389 41.2506 69.2389 37.9799C69.2389 35.2265 69.2055 34.9595 68.8885 34.5423C68.0543 33.4242 67.9709 33.3909 64.1836 33.3575C61.5642 33.3241 60.6132 33.3575 60.2295 33.541ZM66.6529 37.9799V39.9824H63.9834H61.314V37.9799V35.9774H63.9834H66.6529V37.9799Z" fill="#288DC8"/>
<path d="M12.1793 45.5559C11.4952 45.8563 10.7945 46.7074 10.6777 47.3749C10.611 47.6752 10.5943 49.0603 10.6276 50.4453C10.6777 53.1988 10.7611 53.4491 11.8289 54.2334C12.2627 54.5671 12.5129 54.5838 15.9332 54.5838C19.3534 54.5838 19.6037 54.5671 20.0374 54.2334C21.1553 53.4157 21.1886 53.2655 21.1886 49.9948C21.1886 47.2414 21.1553 46.9744 20.8383 46.5572C20.0041 45.4391 19.9207 45.4058 16.1334 45.3724C13.514 45.339 12.563 45.3724 12.1793 45.5559ZM18.6026 49.9948V51.9973H15.9332H13.2637V49.9948V47.9923H15.9332H18.6026V49.9948Z" fill="#288DC8"/>
<path d="M28.1961 45.5559C27.5121 45.8563 26.8113 46.7074 26.6945 47.3749C26.6278 47.6752 26.6111 49.0603 26.6445 50.4453C26.6945 53.1988 26.778 53.4491 27.8457 54.2334C28.2795 54.5671 28.5298 54.5838 31.95 54.5838C35.3702 54.5838 35.6205 54.5671 36.0543 54.2334C37.1721 53.4157 37.2055 53.2655 37.2055 49.9948C37.2055 47.2414 37.1721 46.9744 36.8551 46.5572C36.0209 45.4391 35.9375 45.4058 32.1502 45.3724C29.5308 45.339 28.5798 45.3724 28.1961 45.5559ZM34.6195 49.9948V51.9973H31.95H29.2806V49.9948V47.9923H31.95H34.6195V49.9948Z" fill="#288DC8"/>
<path d="M44.2126 45.5559C43.5286 45.8563 42.8279 46.7074 42.7111 47.3749C42.6443 47.6752 42.6277 49.0603 42.661 50.4453C42.7111 52.6981 42.7445 53.0319 43.0614 53.4324C43.5953 54.1666 44.196 54.5337 45.0135 54.6172C45.6642 54.7006 45.831 54.6506 46.1981 54.2834C46.7653 53.7161 46.7653 52.9651 46.2147 52.4145C45.9978 52.1808 45.6975 51.9973 45.5474 51.9973C45.3305 51.9973 45.2971 51.6969 45.2971 49.9948V47.9923H48.2168C51.1032 47.9923 51.1532 47.9923 51.5536 47.5751C51.8206 47.3248 51.9707 46.9744 51.9707 46.6573C51.9707 46.3403 51.8206 45.9898 51.5536 45.7395C51.1532 45.3223 51.1365 45.3223 47.9332 45.3223C45.6308 45.339 44.563 45.4058 44.2126 45.5559Z" fill="#288DC8"/>
<path d="M59.779 45.5726C53.6059 46.6072 48.3004 51.0794 46.2816 56.9701C45.0303 60.5746 45.0136 64.6463 46.2149 68.1673C48.1836 73.9912 53.0887 78.3466 59.0616 79.6315C63.7331 80.6328 68.8384 79.5648 72.7425 76.778C73.9271 75.9436 75.9291 73.9244 76.7467 72.7897C78.2149 70.7205 79.4328 67.65 79.8165 65.0635C80.4505 60.7748 79.2159 55.8687 76.6132 52.3977C75.7122 51.2129 73.56 49.127 72.4589 48.3594C68.8885 45.9064 64.0835 44.8551 59.779 45.5726ZM66.2357 48.4595C71.658 49.9447 75.4787 53.7995 76.9302 59.2729C77.3807 60.9917 77.364 64.4794 76.8801 66.2649C75.4286 71.6049 71.5746 75.4597 66.2357 76.9115C64.4505 77.3954 60.9635 77.4121 59.2451 76.9615C52.8051 75.2427 48.4338 70.0196 48.0167 63.5282C47.7498 59.3898 49.3014 55.3514 52.3045 52.331C54.5068 50.145 57.0094 48.81 60.0626 48.2259C61.6309 47.9255 64.7008 48.0423 66.2357 48.4595Z" fill="#288DC8"/>
<path d="M70.8239 56.7866C70.6904 56.8366 68.1878 59.2563 65.2848 62.1599L59.9793 67.4331L57.5267 64.9801C54.6737 62.1432 54.34 61.9596 53.4558 62.8274C52.5549 63.7452 52.705 63.9955 56.2754 67.5666C59.1284 70.4034 59.462 70.6871 59.9793 70.6871C60.5131 70.6871 60.997 70.2366 66.3692 64.8799C69.5726 61.6926 72.2921 58.8892 72.4256 58.6389C72.7592 57.9881 72.7259 57.7044 72.1753 57.1537C71.7081 56.6864 71.3578 56.5863 70.8239 56.7866Z" fill="#288DC8"/>
<path d="M12.1793 57.5708C11.4952 57.8711 10.7945 58.7222 10.6777 59.3897C10.611 59.6901 10.5943 61.0751 10.6276 62.4602C10.6777 65.2136 10.7611 65.4639 11.8289 66.2482C12.2627 66.5819 12.5129 66.5986 15.9332 66.5986C19.3534 66.5986 19.6037 66.5819 20.0374 66.2482C21.1553 65.4305 21.1886 65.2803 21.1886 62.0096C21.1886 59.2562 21.1553 58.9892 20.8383 58.572C20.0041 57.454 19.9207 57.4206 16.1334 57.3872C13.514 57.3538 12.563 57.3872 12.1793 57.5708ZM18.6026 62.0096V64.0121H15.9332H13.2637V62.0096V60.0071H15.9332H18.6026V62.0096Z" fill="#288DC8"/>
<path d="M28.1961 57.5708C27.5121 57.8711 26.8113 58.7222 26.6945 59.3897C26.6278 59.6901 26.6111 61.0751 26.6445 62.4602C26.6945 65.2136 26.778 65.4639 27.8457 66.2482C28.2795 66.5819 28.5298 66.5986 31.95 66.5986C35.3702 66.5986 35.6205 66.5819 36.0543 66.2482C37.1721 65.4305 37.2055 65.2803 37.2055 62.0096C37.2055 59.2562 37.1721 58.9892 36.8551 58.572C36.0209 57.454 35.9375 57.4206 32.1502 57.3872C29.5308 57.3538 28.5798 57.3872 28.1961 57.5708ZM34.6195 62.0096V64.0121H31.95H29.2806V62.0096V60.0071H31.95H34.6195V62.0096Z" fill="#288DC8"/>
</svg>
