<svg width="80" height="80" viewBox="0 0 80 80" fill="none" xmlns="http://www.w3.org/2000/svg">
<path d="M44.7656 21.25C7.98438 31.9219 9.96876 31.3281 8.81251 31.8906C7.54688 32.4844 6.21876 33.7031 5.71876 34.7187C5.18751 35.7812 5.15626 37.3281 5.64063 38.3437C6.00001 39.1094 7.01563 40.2187 7.71876 40.5781C7.96876 40.7031 11.2344 42.1406 14.9844 43.7812C18.7344 45.4062 21.875 46.8281 21.9688 46.9219C22.0781 47.0312 22.9063 49.4219 23.8125 52.2344C25.3906 57.0937 25.5 57.375 25.9844 57.6562C26.6719 58.0937 27.375 58.0469 27.9531 57.5625C28.7969 56.8594 28.7656 56.6406 27.0313 51.2656C26.1563 48.5781 25.4688 46.3594 25.5 46.3437C25.5313 46.3125 27.9375 44.8281 30.8594 43.0469C36.25 39.75 66 21.5625 66.7188 21.125C67.0781 20.9062 67.0938 20.9062 66.875 21.125C66.75 21.25 61.6563 25.4375 55.5469 30.4062C35.1094 47.0312 32.6406 49.0781 32.5 49.4219C32.1563 50.3125 28.2813 65.1406 28.2813 65.5937C28.2813 66.2812 28.5 66.6562 29.0625 66.9531C29.6563 67.2656 30.3125 67.25 30.7813 66.9219C31.125 66.6875 32.7656 65.2969 41.5781 57.7656L43.7344 55.9375L47.8594 57.6562C52.5781 59.6094 53.5938 59.9062 55.3906 59.8125C57.0313 59.7187 58.0313 59.2812 59.0313 58.2187C59.875 57.3281 60.1563 56.8437 60.9844 54.8437C62.25 51.7656 76.0938 14.7187 76.0938 14.3906C76.0938 13.5156 75.3594 12.8125 74.4531 12.8281C74.1094 12.8281 60.75 16.625 44.7656 21.25ZM62.4844 19.75C62.4531 19.7812 53.625 25.1875 42.8594 31.7656L23.2969 43.7344L17.0781 41.0312C13.6563 39.5312 10.4688 38.1406 9.98438 37.9219C9.14063 37.5469 8.59376 37.0312 8.59376 36.6094C8.59376 36.2031 9.70313 35.1875 10.5781 34.7969C11.3906 34.4375 61.7813 19.7344 62.3281 19.7031C62.4531 19.6875 62.5156 19.7187 62.4844 19.75ZM63.75 38.0625C58.6406 51.6562 57.1719 55.3594 56.6094 55.9687C56.4688 56.125 56.1094 56.3125 55.7969 56.4062C54.5938 56.7344 53.5469 56.3906 45.3125 52.9531C40.9688 51.1406 37.4063 49.6406 37.375 49.6094C37.3594 49.5937 40.125 47.2969 43.5469 44.5156C64.0781 27.7656 68.9844 23.7812 69.0313 23.8281C69.0625 23.8437 66.6875 30.2656 63.75 38.0625ZM38.25 53.625C39.2969 54.0625 40.1563 54.4531 40.1406 54.5156C40.1406 54.625 33.0781 60.6406 33.0313 60.5781C33 60.5625 33.4844 58.7031 34.0938 56.4531L35.2031 52.3594L35.7656 52.5937C36.0781 52.7344 37.1875 53.1875 38.25 53.625Z" fill="#DD2593" fill-opacity="0.89"/>
</svg>
