<svg width="64" height="64" viewBox="0 0 64 64" fill="none" xmlns="http://www.w3.org/2000/svg">
<path d="M37.5624 4.46249C37.3624 4.5625 34.4499 6.25 31.1124 8.2L25.0374 11.75H22.8499C20.3374 11.75 19.4999 11.875 18.9124 12.325C18.2999 12.8 18.0874 13.3 17.9999 14.5L17.9374 15.55L13.8749 16.775C11.6374 17.45 9.67494 18.1 9.51244 18.225C8.87494 18.7 8.59994 19.6375 8.79994 20.6875L8.88744 21.1875L4.74994 23.6125C1.99994 25.225 0.537441 26.15 0.362441 26.4C0.0124408 26.8875 -0.0750592 27.7 0.149941 28.25C0.249941 28.4875 4.29994 35.1625 9.14994 43.075C14.6499 52.0625 17.9999 57.6375 18.0499 57.925C18.1624 58.5 18.7874 59.225 19.4374 59.5125C19.9124 59.7375 20.8999 59.75 40.9999 59.75C61.2124 59.75 62.0874 59.7375 62.5624 59.5125C63.1624 59.2375 63.5499 58.8375 63.8124 58.225C63.9749 57.8125 63.9999 55.3375 63.9999 35.725C63.9999 14.475 63.9874 13.675 63.7624 13.175C63.4499 12.5 62.8249 12.025 61.9999 11.875C61.6374 11.8125 59.7499 11.75 57.8124 11.75H54.2749L53.6874 9.33749C53.3249 7.78749 53.0124 6.77499 52.8124 6.4875C52.4874 5.9875 51.8374 5.625 51.2749 5.625C51.0749 5.625 48.9499 6.21249 46.5499 6.9375C44.1499 7.66249 42.1124 8.2625 42.0124 8.28749C41.9124 8.3 41.5124 7.72499 41.0124 6.8625C39.8499 4.83749 39.7874 4.7625 39.2124 4.4875C38.5749 4.19999 38.0624 4.19999 37.5624 4.46249ZM38.7249 5.83749C39.1249 6.2 40.5124 8.75 40.3374 8.8125C40.2499 8.83749 38.0249 9.5125 35.3874 10.3125L30.5874 11.75H29.1999H27.8124L28.8124 11.1625C33.1999 8.58749 38.3249 5.625 38.3874 5.625C38.4374 5.625 38.5874 5.72499 38.7249 5.83749ZM51.6249 7.1875C51.7124 7.3 52.0249 8.3625 52.3124 9.5625L52.8374 11.75L44.1999 11.7375C37.6874 11.725 35.6749 11.6875 35.9999 11.5875C38.2874 10.8625 51.1124 7.0125 51.2624 7.0125C51.3749 7 51.5374 7.08749 51.6249 7.1875ZM62.3624 13.575L62.6249 13.9125V35.7C62.6249 51.4 62.5874 57.575 62.4874 57.7875C62.4124 57.9625 62.2124 58.1625 62.0374 58.2375C61.6124 58.4375 20.3874 58.4375 19.9624 58.2375C19.7874 58.1625 19.5874 57.9625 19.5124 57.7875C19.4124 57.575 19.3749 51.4 19.3749 35.7V13.9125L19.6374 13.575L19.8874 13.25H40.9999H62.1124L62.3624 13.575ZM17.9874 33.15C17.9874 42.0375 17.9624 49.25 17.9374 49.1875C17.8874 49.0625 11.5374 25.5375 10.6124 22.1C10.0999 20.15 10.0249 19.6125 10.2874 19.4C10.3999 19.3 17.5374 17.0625 17.9124 17.0125C17.9624 17 17.9999 24.275 17.9874 33.15ZM13.5999 38.5125C15.9624 47.25 17.8749 54.425 17.8374 54.45C17.7624 54.5375 1.46244 27.875 1.39994 27.55C1.36244 27.35 1.44994 27.2125 1.68744 27.05C2.23744 26.6875 9.18744 22.625 9.24994 22.625C9.28744 22.625 11.2374 29.775 13.5999 38.5125Z" fill="#701890"/>
<path d="M34.8999 16.775C34.6749 17 34.7249 17.5625 34.9749 17.7875C35.1874 17.975 35.7874 18 41.0249 18C46.4999 18 46.8499 17.9875 47.0374 17.775C47.2749 17.5125 47.2999 17.2125 47.1249 16.8625C46.9999 16.6375 46.7999 16.625 41.0249 16.625C36.5374 16.625 35.0124 16.6625 34.8999 16.775Z" fill="#701890"/>
<path d="M35.0249 20.45C34.7249 20.6625 34.6499 21.225 34.8999 21.475C35.1124 21.6875 46.8874 21.6875 47.0999 21.475C47.3499 21.225 47.2749 20.6625 46.9749 20.45C46.7249 20.275 45.9499 20.25 40.9999 20.25C36.0499 20.25 35.2749 20.275 35.0249 20.45Z" fill="#701890"/>
<path d="M28.5625 25.5625C28.3875 25.725 28.25 25.925 28.25 26C28.25 26.075 28.3875 26.275 28.5625 26.4375L28.8625 26.75H41H53.1375L53.4375 26.4375C53.6125 26.275 53.75 26.075 53.75 26C53.75 25.925 53.6125 25.725 53.4375 25.5625L53.1375 25.25H41H28.8625L28.5625 25.5625Z" fill="#701890"/>
<path d="M22.5375 31.275C21.9875 31.55 22.025 32.25 22.6 32.4875C22.85 32.5875 24.4 32.625 27.925 32.6C32.675 32.5625 32.9 32.55 33.075 32.325C33.3 32.0125 33.3 31.7375 33.075 31.425C32.9 31.2 32.6875 31.1875 27.85 31.1625C24.4125 31.15 22.725 31.175 22.5375 31.275Z" fill="#701890"/>
<path d="M36.5 31.2125C36.0125 31.3875 36 31.4875 36 37.2125C36 42.5875 36.0125 42.7625 36.25 43C36.4875 43.2375 36.6625 43.25 41 43.25C45.3375 43.25 45.5125 43.2375 45.75 43C45.9875 42.7625 46 42.5875 46 37.2125C46 34.175 45.95 31.625 45.9 31.55C45.65 31.1625 45.225 31.125 40.975 31.1375C38.6125 31.1375 36.6 31.175 36.5 31.2125ZM44.6 37.2125L44.5625 41.8125L40.975 41.85L37.375 41.875V37.25V32.625H41H44.625L44.6 37.2125Z" fill="#701890"/>
<path d="M49.125 31.2875C48.8875 31.4125 48.8125 31.5375 48.8125 31.875C48.8125 32.6125 48.8625 32.625 54.325 32.625C59.0875 32.625 59.225 32.6125 59.55 32.3625C59.9625 32.0375 59.9625 31.7125 59.55 31.3875C59.225 31.1375 59.0875 31.125 54.325 31.125C50.6375 31.125 49.3625 31.1625 49.125 31.2875Z" fill="#701890"/>
<path d="M22.375 37C22.0625 37.3125 22.05 37.65 22.35 37.9125C22.5625 38.1 23.1125 38.125 27.725 38.125C33.3 38.125 33.25 38.1375 33.25 37.4375C33.25 36.7625 33.125 36.75 27.6625 36.75C22.7875 36.75 22.6125 36.7625 22.375 37Z" fill="#701890"/>
<path d="M49.0249 36.95C48.7249 37.15 48.6749 37.5 48.8749 37.8875C48.9999 38.1125 49.1999 38.125 54.2499 38.125H59.4874L59.6749 37.85C59.9374 37.475 59.9249 37.3 59.6249 37C59.3874 36.7625 59.2124 36.75 54.3374 36.75C49.9874 36.75 49.2624 36.775 49.0249 36.95Z" fill="#701890"/>
<path d="M22.2875 42.7C22.1 43 22.1 43.0625 22.2625 43.3625L22.45 43.6875L27.6125 43.725C32.3 43.75 32.8125 43.7375 33.025 43.55C33.3125 43.275 33.3125 42.85 33.025 42.5875C32.8125 42.4 32.2625 42.375 27.65 42.375H22.5L22.2875 42.7Z" fill="#701890"/>
<path d="M48.9624 42.6C48.6874 42.9 48.6999 43.2875 48.9749 43.5375C49.1874 43.725 49.7374 43.75 54.3499 43.75H59.4874L59.6749 43.475C59.9374 43.1 59.9249 42.925 59.6249 42.625C59.3874 42.3875 59.2124 42.375 54.2749 42.375C49.4874 42.375 49.1499 42.3875 48.9624 42.6Z" fill="#701890"/>
<path d="M22.3249 48.275C22.0624 48.65 22.0749 48.825 22.3749 49.125C22.6124 49.3625 22.7874 49.375 27.7249 49.375C32.5124 49.375 32.8499 49.3625 33.0374 49.15C33.3124 48.85 33.2999 48.4625 33.0249 48.2125C32.8124 48.025 32.2624 48 27.6499 48H22.5124L22.3249 48.275Z" fill="#701890"/>
<path d="M35.6499 48.15C35.4374 48.3625 35.4624 48.95 35.6999 49.175C35.8624 49.35 36.5249 49.375 40.9999 49.375C45.4749 49.375 46.1374 49.35 46.2999 49.175C46.5374 48.95 46.5624 48.3625 46.3499 48.15C46.1374 47.9375 35.8624 47.9375 35.6499 48.15Z" fill="#701890"/>
<path d="M48.9499 48.2C48.6874 48.4625 48.6999 48.9125 48.9749 49.1625C49.1874 49.35 49.7374 49.375 54.2874 49.375C59.2124 49.375 59.3874 49.3625 59.6249 49.125C59.9249 48.825 59.9374 48.65 59.6749 48.275L59.4874 48H54.3124C49.7749 48 49.1124 48.025 48.9499 48.2Z" fill="#701890"/>
<path d="M22.3374 53.85C22.0624 54.1625 22.0749 54.45 22.3749 54.75C22.6124 54.9875 22.7874 55 27.6624 55C32.0124 55 32.7374 54.975 32.9749 54.8C33.2749 54.6 33.3249 54.25 33.1249 53.8625C32.9999 53.6375 32.7999 53.625 27.7624 53.625C22.8624 53.625 22.5249 53.6375 22.3374 53.85Z" fill="#701890"/>
<path d="M35.6499 53.775C35.3999 54.025 35.4749 54.5875 35.7749 54.8C36.0124 54.975 36.7249 55 40.9999 55C45.2749 55 45.9874 54.975 46.2249 54.8C46.5249 54.5875 46.5999 54.025 46.3499 53.775C46.1374 53.5625 35.8624 53.5625 35.6499 53.775Z" fill="#701890"/>
<path d="M48.8749 53.8625C48.6749 54.25 48.7249 54.6 49.0249 54.8C49.2624 54.975 49.9874 55 54.3374 55C59.2124 55 59.3874 54.9875 59.6249 54.75C59.9249 54.45 59.9374 54.275 59.6749 53.9L59.4874 53.625H54.2499C49.1999 53.625 48.9999 53.6375 48.8749 53.8625Z" fill="#701890"/>
</svg>
