<svg width="64" height="64" viewBox="0 0 64 64" fill="none" xmlns="http://www.w3.org/2000/svg">
<g clip-path="url(#clip0_32_23)">
<path d="M2.44668 0.312504L2.13293 0.612505V9.9125C2.13293 19.075 2.13293 19.2125 2.38393 19.475C2.52198 19.625 2.77298 19.775 2.92358 19.8125C3.07418 19.85 9.71312 19.8625 17.6573 19.85L32.1148 19.8125L32.4035 19.525L32.6921 19.2375V9.925V0.600004L32.3407 0.300005L31.9893 3.8147e-06H17.3686H2.74788L2.44668 0.312504ZM30.7469 9.9375V17.875H17.3812H4.01543V9.9375V2H17.3812H30.7469V9.9375Z" fill="#701890"/>
<path d="M47.6894 0.175C46.7858 0.412499 45.9073 0.8 45.2171 1.25C44.9159 1.4625 44.5519 1.625 44.4139 1.625C43.6609 1.625 42.6694 2.475 42.431 3.3375C42.2427 3.9875 42.2678 5.9 42.4686 6.8125C42.6318 7.6 43.1463 9.4625 43.5605 10.8875C44.0248 12.4625 45.2673 13.95 46.6603 14.6C47.2376 14.875 47.5639 14.9375 48.3169 14.9375C49.5468 14.9375 50.463 14.5125 51.5172 13.45C52.4333 12.5125 52.9855 11.5125 53.3871 10.05C53.5503 9.4375 53.8389 8.5375 54.0272 8.0625C54.5166 6.8 54.6045 5.1125 54.228 3.8875C53.9017 2.8 53.0734 1.5875 52.3078 1.025C51.103 0.162499 49.1452 -0.1875 47.6894 0.175ZM50.6889 2.3375C51.6929 2.825 52.3204 3.8 52.5212 5.175L52.609 5.725L52.0945 5.6625C51.718 5.6125 51.4042 5.675 50.9273 5.8875C50.4002 6.1125 50.0237 6.175 49.1327 6.175C47.7647 6.1875 46.9615 5.9375 46.0328 5.2375C45.2798 4.675 44.9786 4.6375 44.4892 5.025L44.1378 5.3L44.2005 4.5875C44.2633 3.7625 44.4515 3.5 44.9661 3.5C45.2045 3.5 45.6061 3.325 45.9952 3.0625C47.6141 1.95 49.3711 1.675 50.6889 2.3375ZM46.6854 7.7875C47.2251 7.9875 47.6894 8.0375 48.8817 8.05C49.71 8.0625 50.6387 8.0125 50.9399 7.95L51.4795 7.85L51.4293 9.0125C51.4042 9.95 51.3289 10.3125 51.0905 10.775C50.1492 12.625 48.6307 13.425 47.338 12.7625C46.3968 12.275 45.443 10.9625 45.2422 9.8375C45.192 9.5875 45.2171 9 45.3049 8.525C45.5057 7.375 45.5183 7.3375 45.7818 7.4375C45.8948 7.4875 46.3089 7.6375 46.6854 7.7875Z" fill="#701890"/>
<path d="M42.4309 14.2C40.7116 14.6625 39.0675 15.9875 38.3145 17.5125C37.9129 18.325 37.7247 19 37.5866 20.1375L37.5113 20.725L35.4782 20.7625C33.2192 20.8125 32.9431 20.9 32.5541 21.6375C32.4035 21.95 32.3658 22.35 32.4035 23.7125L32.4411 25.4L32.8427 25.75C33.1565 26.025 33.42 26.125 34.0099 26.2C34.6625 26.275 34.7629 26.3125 34.7629 26.55C34.7754 26.6875 34.9637 29.7875 35.1896 33.4125C35.5912 39.75 35.6163 40.025 35.8798 40.2875L36.1559 40.5625L48.0031 40.6C61.2684 40.6375 60.6158 40.675 60.8543 39.7875C60.9421 39.45 61.7704 26.9875 61.7453 26.3625C61.7453 26.325 62.0591 26.25 62.4481 26.2C63.3141 26.1 63.5776 25.9625 63.8788 25.4625C64.0922 25.125 64.1298 24.825 64.1298 23.5C64.1298 22.175 64.0922 21.875 63.8788 21.5375C63.4772 20.8875 63.2513 20.825 60.9672 20.775L58.8588 20.725V20.1375C58.8463 17.5 56.4743 14.7 53.7384 14.1375C52.5838 13.9 52.0944 13.9625 51.3288 14.45C49.4087 15.6625 47.1622 15.6625 45.1417 14.4375C44.3134 13.9375 43.6231 13.875 42.4309 14.2ZM44.464 16.3C45.355 16.8125 46.8108 17.2625 47.8148 17.3375C49.0698 17.4375 50.4252 17.1375 51.6802 16.4875C52.7595 15.925 53.0607 15.9 54.0271 16.2625C55.4829 16.8 56.7379 18.425 56.9261 20.025L57.0014 20.75H48.2541H39.4942L39.5821 19.975C39.7452 18.4125 40.6237 17.1625 42.067 16.45C43.1337 15.9125 43.7235 15.875 44.464 16.3ZM62.2473 23.5V24.25H48.2541H34.2609V23.5V22.75H48.2541H62.2473V23.5ZM59.411 32.4C59.1851 35.7875 59.0094 38.575 58.9969 38.5875C58.9843 38.6125 54.1526 38.625 48.2541 38.625C42.3556 38.625 37.5239 38.6125 37.5113 38.5875C37.4988 38.575 37.3231 35.7875 37.0972 32.4L36.7081 26.25H48.2541H59.8001L59.411 32.4Z" fill="#701890"/>
<path d="M20.5564 25.6625C19.2637 26.15 18.2723 27.0375 17.7075 28.2375C17.4314 28.8375 17.3812 29.1 17.3812 30.125C17.3812 31.15 17.4314 31.4125 17.7201 32.025C18.1468 32.95 19.1257 33.925 20.0544 34.35C20.6693 34.6375 20.9329 34.6875 21.962 34.6875C23.0538 34.6875 23.2295 34.65 23.9825 34.2875C24.9991 33.7875 25.7395 33.0125 26.2541 31.925C26.6055 31.1625 26.6306 31.0375 26.5804 29.9625C26.5427 29.05 26.4549 28.675 26.1913 28.1125C25.7772 27.2625 24.7104 26.2125 23.8821 25.85C23.1291 25.5125 21.2592 25.4125 20.5564 25.6625ZM22.7526 27.5125C23.2797 27.65 24.1457 28.3625 24.4092 28.875C24.4971 29.05 24.61 29.4 24.6602 29.6625L24.7481 30.125H21.962H19.1759L19.2637 29.7125C19.6277 28.0375 21.1713 27.075 22.7526 27.5125ZM23.7817 32.125C23.5809 32.4375 22.6271 32.7875 21.962 32.7875C21.2968 32.7875 20.343 32.4375 20.1422 32.125C20.092 32.0375 20.707 32 21.962 32C23.217 32 23.8319 32.0375 23.7817 32.125Z" fill="#701890"/>
<path d="M18.4856 35.4875C17.3687 35.9 16.5278 36.4125 15.7497 37.1875C14.2688 38.6625 13.6288 40.4375 13.6288 43.1L13.6162 44.775L13.9676 45.075L14.319 45.375H22.0372C29.5421 45.375 29.7555 45.3625 29.9939 45.125C30.3579 44.7625 30.4081 44.375 30.3328 42.7C30.2449 40.9625 30.0567 40.1875 29.4166 38.9C28.6009 37.25 26.8188 35.8125 25.0492 35.3625C24.4719 35.225 24.4092 35.225 23.6185 35.6375C22.4765 36.225 21.4976 36.225 20.3681 35.65C19.4645 35.1875 19.3641 35.175 18.4856 35.4875ZM20.3932 37.725C21.5478 38.125 22.9534 38.075 24.0201 37.5875C24.6225 37.3125 24.7857 37.2875 25.1371 37.4C26.0909 37.725 27.2204 38.7375 27.7224 39.7125C28.0361 40.3375 28.3248 41.4625 28.4252 42.525L28.513 43.375H22.0372H15.5615V42.6875C15.5615 41.1125 16.189 39.4875 17.1804 38.5C17.8581 37.825 19.0127 37.2 19.3264 37.3375C19.4268 37.375 19.9163 37.55 20.3932 37.725Z" fill="#701890"/>
<path d="M7.2785 44.2375C6.01095 44.65 4.90656 45.5875 4.30416 46.75C3.99041 47.375 3.95276 47.5625 3.95276 48.75C3.95276 49.9375 3.99041 50.125 4.30416 50.75C4.78106 51.6625 5.54661 52.4375 6.46275 52.9125C7.16555 53.2875 7.3036 53.3125 8.47075 53.3125C9.6379 53.3125 9.7885 53.2875 10.5666 52.9C11.5455 52.425 12.2985 51.65 12.7879 50.625C13.064 50.0375 13.1142 49.775 13.1142 48.75C13.1142 47.725 13.064 47.4625 12.7879 46.875C12.2985 45.8625 11.5455 45.075 10.5791 44.6C9.87635 44.2625 9.60025 44.2 8.67155 44.1625C8.0817 44.15 7.4542 44.175 7.2785 44.2375ZM9.29905 46.1375C10.2277 46.425 11.0184 47.325 11.2066 48.3375L11.2945 48.75H8.52095H5.7474L5.83525 48.2875C5.9482 47.6625 6.1741 47.2625 6.68865 46.775C7.404 46.075 8.3327 45.8625 9.29905 46.1375ZM10.2905 50.75C10.2905 50.9125 9.44965 51.325 8.8849 51.425C8.29505 51.5375 7.41655 51.3125 6.9522 50.9375L6.58825 50.6375L8.44565 50.625C9.5626 50.625 10.2905 50.675 10.2905 50.75Z" fill="#701890"/>
<path d="M34.0476 44.3C32.7549 44.7125 31.7886 45.6125 31.1611 46.9625C30.8724 47.575 30.8097 47.8625 30.8097 48.75C30.8097 49.6875 30.8599 49.9125 31.2113 50.65C31.6882 51.6625 32.4914 52.475 33.4828 52.9625C34.1229 53.275 34.3362 53.3125 35.4532 53.3125C36.5701 53.3125 36.7835 53.275 37.4235 52.9625C39.3437 52.025 40.4355 49.8875 40.0339 47.9125C39.7202 46.4 38.7915 45.2125 37.4361 44.55C36.8588 44.2625 36.5199 44.1875 35.654 44.1625C34.9763 44.1375 34.3739 44.1875 34.0476 44.3ZM36.8462 46.4375C37.5114 46.825 38.0259 47.55 38.1138 48.2375L38.1891 48.75H35.4532H32.7173L32.7926 48.2375C33.031 46.4375 35.2022 45.475 36.8462 46.4375ZM37.2729 50.7375C37.2729 51 36.0807 51.425 35.3779 51.425C34.7002 51.4125 33.6334 50.9875 33.6334 50.725C33.6334 50.675 34.4492 50.625 35.4532 50.625C36.4697 50.625 37.2729 50.675 37.2729 50.7375Z" fill="#701890"/>
<path d="M5.20776 54.05C3.45076 54.6 1.78162 55.9875 1.04117 57.5C0.401122 58.8 0.225422 59.625 0.162672 61.5875C0.0999224 63.3625 0.0999224 63.3625 0.413672 63.675L0.739971 64H8.4582H16.1764L16.5027 63.7125C16.7914 63.475 16.8416 63.3125 16.9043 62.5C16.9922 61.325 16.7663 59.6375 16.3772 58.475C15.6368 56.3 13.9174 54.6625 11.7212 54.0625L10.9682 53.85L10.1525 54.2625C9.02295 54.85 8.0566 54.85 6.87691 54.275C5.94821 53.825 5.92311 53.825 5.20776 54.05ZM8.5335 56.5625C9.7132 56.5625 9.92655 56.525 10.5917 56.2125L11.3447 55.8625L12.0349 56.2125C13.7543 57.0375 14.934 59.1125 14.934 61.275V62H8.4582H1.98242L2.07027 61.1625C2.32127 58.65 3.32527 56.9875 5.03206 56.1875L5.67211 55.9L6.43766 56.225C7.11536 56.5125 7.39146 56.5625 8.5335 56.5625Z" fill="#701890"/>
<path d="M31.8765 54.1625C29.7555 54.875 28.0989 56.6375 27.4338 58.875C27.1451 59.85 26.9443 61.7875 27.0447 62.675C27.1075 63.2125 27.2204 63.5 27.4338 63.7125L27.7224 64H35.4532H43.184L43.4852 63.6875C43.7864 63.4 43.799 63.3125 43.799 61.875C43.799 60.95 43.7237 60.0125 43.5982 59.4625C43.0209 56.8625 41.289 54.9125 38.8668 54.1125L38.026 53.8375L37.1098 54.2625C35.8674 54.8375 34.9136 54.8375 33.7966 54.275C33.3699 54.05 32.9432 53.875 32.8554 53.875C32.7675 53.875 32.3283 54.0125 31.8765 54.1625ZM35.4532 56.5625C36.52 56.5625 36.8212 56.5125 37.4863 56.2375L38.277 55.9L38.9923 56.25C39.8708 56.6625 40.8121 57.625 41.2388 58.55C41.5902 59.325 41.9165 60.7 41.9165 61.4625V62H35.4532H28.99V61.4C29.0025 59.3875 30.0065 57.375 31.4749 56.45C32.3408 55.9125 32.5918 55.8875 33.4327 56.2375C34.0853 56.5125 34.3865 56.5625 35.4532 56.5625Z" fill="#701890"/>
</g>
<defs>
<clipPath id="clip0_32_23">
<rect width="64" height="64" fill="white"/>
</clipPath>
</defs>
</svg>
