<?xml version="1.0" standalone="no"?>
<!DOCTYPE svg PUBLIC "-//W3C//DTD SVG 20010904//EN"
 "http://www.w3.org/TR/2001/REC-SVG-20010904/DTD/svg10.dtd">
<svg version="1.0" xmlns="http://www.w3.org/2000/svg"
 width="512.000000pt" height="512.000000pt" viewBox="0 0 512.000000 512.000000"
 preserveAspectRatio="xMidYMid meet">

<g transform="translate(0.000000,512.000000) scale(0.100000,-0.100000)"
fill="#701890" stroke="none">
<path d="M2436 4235 c-235 -60 -425 -287 -426 -510 l0 -50 -24 58 c-68 164
-196 270 -363 299 -190 32 -392 -77 -480 -261 -34 -69 -38 -85 -41 -178 -5
-123 15 -224 64 -331 33 -72 33 -74 13 -79 -52 -14 -180 -85 -239 -132 -174
-140 -220 -253 -220 -538 0 -189 0 -190 96 -218 183 -53 406 -91 597 -101 88
-5 127 -11 127 -19 0 -25 41 -47 136 -74 l98 -28 -42 -6 c-59 -10 -107 -60
-122 -130 -18 -77 -9 -213 16 -263 26 -51 89 -84 160 -84 l52 0 19 -47 19 -48
-42 -52 c-79 -96 -71 -164 32 -273 95 -100 186 -140 247 -109 12 6 40 29 62
50 l41 39 49 -19 50 -19 6 -68 c6 -82 26 -117 83 -147 35 -19 57 -22 156 -22
100 0 120 3 157 23 53 28 76 69 83 151 l5 63 49 19 50 18 47 -44 c85 -80 158
-72 265 27 105 98 145 188 113 251 -6 12 -29 40 -50 63 l-39 40 21 52 22 52
51 0 c122 1 176 62 184 209 9 160 -36 252 -130 267 -40 7 -40 7 57 35 94 27
135 49 135 74 0 8 39 14 127 19 191 10 414 48 596 101 95 28 97 32 97 220 0
172 -16 269 -59 352 -54 107 -187 222 -332 287 l-86 39 32 71 c49 105 68 207
63 329 -3 93 -7 109 -41 178 -89 185 -294 295 -484 260 -165 -30 -292 -135
-359 -298 l-24 -58 0 50 c-1 106 -56 242 -136 333 -57 65 -161 134 -244 162
-83 29 -213 35 -294 15z m267 -175 c80 -30 167 -113 209 -198 32 -65 33 -71
33 -192 0 -102 -4 -139 -24 -200 -32 -106 -76 -183 -138 -245 -70 -70 -129
-98 -216 -103 -60 -4 -75 -1 -131 27 -164 81 -273 306 -264 548 3 82 8 108 31
158 29 63 98 142 155 177 98 60 232 72 345 28z m-1018 -215 c66 -32 128 -100
149 -162 9 -26 16 -79 16 -119 0 -269 -168 -474 -347 -424 -61 18 -150 101
-186 173 -62 127 -76 290 -33 382 76 163 245 227 401 150z m1997 8 c65 -29
113 -77 148 -145 26 -53 30 -72 30 -141 0 -150 -49 -276 -141 -361 -89 -83
-171 -95 -265 -41 -112 65 -184 221 -184 399 0 41 7 93 15 117 56 158 243 239
397 172z m-1643 -402 c11 -46 39 -122 62 -169 22 -46 39 -85 37 -86 -2 -1 -31
-12 -64 -24 -55 -20 -65 -21 -95 -9 -19 8 -42 17 -51 20 -16 6 -15 12 11 64
37 75 59 150 67 230 4 35 8 62 9 61 2 -2 12 -41 24 -87z m1101 -106 c7 -22 25
-66 41 -98 l28 -58 -27 -10 c-15 -5 -39 -14 -53 -20 -20 -8 -37 -6 -75 9 -27
10 -57 22 -67 25 -17 6 -16 10 8 44 31 47 78 168 96 248 l13 59 12 -80 c6 -43
17 -97 24 -119z m-1801 -299 c20 -23 125 -65 182 -72 68 -8 165 15 229 54 25
15 52 26 61 24 12 -2 -10 -30 -75 -95 -143 -143 -190 -257 -203 -491 l-6 -119
-111 7 c-143 8 -293 30 -428 62 l-108 26 0 111 c0 174 25 244 119 337 60 59
146 109 251 146 77 28 75 28 89 10z m987 -21 c78 -47 142 -65 231 -65 84 0
167 24 242 70 26 17 55 30 63 30 25 0 153 -47 226 -82 173 -86 289 -219 321
-368 16 -70 26 -266 17 -313 -6 -33 -11 -38 -58 -52 -69 -20 -69 -20 -47 22
38 75 19 134 -77 234 -72 74 -131 109 -183 109 -41 0 -66 -13 -117 -61 l-40
-39 -51 21 -51 21 -4 67 c-4 78 -27 119 -85 147 -55 27 -251 27 -306 0 -58
-28 -81 -69 -85 -147 l-4 -67 -51 -21 -51 -21 -40 39 c-50 48 -76 61 -116 61
-51 0 -98 -26 -171 -96 -105 -102 -133 -180 -89 -251 23 -38 21 -38 -48 -18
-47 14 -52 18 -58 52 -10 52 3 269 19 328 40 146 153 270 320 353 74 36 191
80 218 81 9 1 43 -15 75 -34z m1156 -41 c91 -23 160 -13 254 36 l73 38 63 -22
c103 -36 189 -87 249 -146 94 -93 119 -163 119 -337 l0 -111 -107 -26 c-136
-32 -286 -54 -429 -62 l-111 -7 -6 119 c-13 233 -60 347 -202 491 -96 97 -102
124 -15 71 25 -15 75 -35 112 -44z m-842 -437 c0 -103 11 -120 88 -142 31 -9
81 -30 111 -46 78 -42 93 -39 166 32 l64 61 57 -57 57 -57 -62 -62 c-71 -72
-74 -88 -32 -167 16 -30 37 -80 46 -111 22 -77 39 -88 143 -88 l83 0 -3 -77
-3 -78 -86 -5 c-50 -3 -93 -11 -102 -18 -9 -8 -23 -39 -32 -70 -9 -32 -30 -81
-46 -109 -42 -77 -39 -94 31 -167 l60 -63 -55 -58 -56 -58 -62 61 c-73 73 -92
76 -170 33 -28 -16 -77 -37 -109 -46 -31 -9 -62 -23 -70 -32 -7 -9 -15 -52
-18 -102 l-5 -86 -75 0 -75 0 -5 86 c-3 50 -11 93 -18 102 -8 9 -39 23 -70 32
-32 9 -81 30 -109 46 -78 43 -97 39 -168 -31 l-61 -61 -58 56 -59 56 62 63
c71 75 74 92 32 169 -16 28 -37 77 -46 109 -9 31 -23 62 -32 70 -9 7 -52 15
-102 18 l-86 5 -3 78 -3 77 83 0 c104 0 121 11 143 88 9 31 30 81 46 111 42
79 39 95 -32 167 l-62 62 57 57 57 57 64 -61 c73 -71 88 -74 166 -32 30 16 80
37 111 46 77 22 88 39 88 142 l0 83 80 0 80 0 0 -83z"/>
<path d="M2451 2254 c-80 -21 -145 -60 -206 -125 -170 -178 -163 -448 15 -612
144 -134 324 -162 496 -77 74 36 160 124 199 204 79 162 48 351 -80 485 -114
120 -271 166 -424 125z m225 -172 c62 -32 97 -65 129 -124 26 -45 30 -64 30
-128 0 -64 -4 -83 -30 -128 -55 -100 -133 -147 -245 -147 -111 0 -191 48 -244
144 -83 153 -10 334 161 397 51 19 148 12 199 -14z"/>
</g>
</svg>
