<svg width="32" height="32" viewBox="0 0 32 32" fill="none" xmlns="http://www.w3.org/2000/svg">
<path d="M10.1375 9.18481C9.82497 9.24731 9.47497 9.51606 9.3281 9.80669C9.1781 10.1036 9.17497 10.1942 9.25622 11.9192L9.3281 13.5129L16.075 13.5223L22.8187 13.5286L22.8062 12.9129C22.7937 12.3661 22.7843 12.2723 22.7218 12.1129C22.6281 11.8723 22.4875 11.6942 22.2812 11.5567C21.975 11.3473 22.1531 11.3598 19.0937 11.3411C16.3062 11.3254 16.2968 11.3254 16.0906 11.2567C15.8312 11.1661 15.5343 10.9754 15.3312 10.7629C15.2437 10.6723 15.0437 10.3817 14.8843 10.1161C14.5562 9.56606 14.4218 9.41606 14.1312 9.27231L13.9218 9.16919L12.0937 9.16294C11.0875 9.16294 10.2062 9.17231 10.1375 9.18481Z" fill="#FBEFFF"/>
<path d="M8.32809 14.2004C8.17496 14.2535 8.04059 14.3973 8.01559 14.5348C7.99996 14.6223 8.88121 21.1285 9.00309 21.8254C9.07184 22.2192 9.38121 22.6067 9.74996 22.7567L9.92184 22.8254L15.8906 22.8348C20.2656 22.841 21.9093 22.8348 22.0468 22.8098C22.525 22.716 22.8843 22.3723 23 21.8973C23.0718 21.5973 24.0031 14.6348 23.9843 14.5348C23.9562 14.3848 23.7937 14.2192 23.6406 14.1848C23.5656 14.166 20.4781 14.1567 15.9843 14.1567C9.57496 14.1567 8.43434 14.1629 8.32809 14.2004ZM16.7656 14.6067C17.2531 14.7067 17.7312 14.8973 18.1062 15.1379C19.0875 15.766 19.7406 16.7598 19.925 17.9035C19.9875 18.2942 19.9687 18.941 19.8906 19.3098C19.5468 20.866 18.3468 22.0567 16.7812 22.3942C16.4093 22.4723 15.5906 22.4723 15.2187 22.3942C13.6531 22.0567 12.4531 20.866 12.1093 19.3098C12.0312 18.941 12.0125 18.2942 12.075 17.9035C12.325 16.3379 13.4656 15.066 14.9812 14.666C15.5218 14.5223 16.25 14.4973 16.7656 14.6067Z" fill="#FBEFFF"/>
<path d="M15.6718 15.1879C15.1531 15.2379 14.5781 15.4442 14.1343 15.7379C13.9062 15.8879 13.5312 16.241 13.3625 16.466C12.6062 17.4598 12.4593 18.7504 12.9687 19.8879C13.275 20.566 13.9093 21.2067 14.5937 21.5254C15.1093 21.7629 15.775 21.8754 16.3218 21.816C17.1187 21.7285 17.8 21.4067 18.3562 20.8535C19.6906 19.5192 19.6531 17.3817 18.2781 16.0754C17.7343 15.5598 17.0625 15.2598 16.2875 15.1848C16.1218 15.1692 15.9718 15.1567 15.9531 15.1598C15.9375 15.1598 15.8093 15.1723 15.6718 15.1879ZM14.9593 17.0598C14.9875 17.0598 15.2312 17.2817 15.5031 17.5504L16 18.041L16.4937 17.5535C16.7968 17.2535 17.0156 17.0598 17.0687 17.0473C17.2812 16.9973 17.5 17.216 17.45 17.4285C17.4375 17.4817 17.2437 17.7004 16.9437 18.0035L16.4562 18.4973L16.9281 18.9754C17.4062 19.4567 17.4875 19.5723 17.4531 19.716C17.4062 19.8973 17.1812 20.0129 17.0281 19.9348C16.9875 19.9129 16.7375 19.6848 16.4781 19.4254L16 18.9535L15.5093 19.441C15.2375 19.7067 14.9843 19.9379 14.9437 19.9504C14.7031 20.0223 14.4531 19.741 14.5625 19.5254C14.5843 19.4848 14.8125 19.2348 15.0718 18.9723L15.5468 18.4973L15.0718 18.0192C14.8125 17.7598 14.5843 17.5098 14.5625 17.4692C14.5156 17.3785 14.5437 17.2098 14.6187 17.1442C14.6906 17.0785 14.8187 17.0285 14.8687 17.0473C14.8937 17.0535 14.9343 17.0598 14.9593 17.0598Z" fill="#FBEFFF"/>
</svg>
