<svg width="32" height="32" viewBox="0 0 32 32" fill="none" xmlns="http://www.w3.org/2000/svg">
<path d="M8.50397 8.08678C8.29538 8.18238 8.16067 8.32144 8.06942 8.53437C7.98685 8.73861 7.98685 8.87767 8.06942 9.08191C8.11722 9.19489 9.14711 10.2509 11.5154 12.6192L14.8919 16L11.4937 19.3982C7.83476 23.0658 7.95209 22.9354 8.02161 23.3135C8.07811 23.622 8.37795 23.9219 8.68648 23.9784C9.06454 24.0479 8.93418 24.1652 12.6018 20.5063L16 17.1081L19.4025 20.5063C23.0658 24.1652 22.9355 24.0479 23.3135 23.9784C23.6221 23.9219 23.9219 23.622 23.9784 23.3135C24.0479 22.9354 24.1652 23.0658 20.5063 19.3982L17.1081 16L20.5063 12.5974C24.1652 8.93416 24.0479 9.06452 23.9784 8.68646C23.9219 8.37793 23.6221 8.07809 23.3135 8.0216C22.9355 7.95207 23.0658 7.83474 19.3982 11.4937L16 14.8919L12.6192 11.5154C10.2509 9.14709 9.19491 8.1172 9.08192 8.0694C8.86899 7.98249 8.7169 7.98683 8.50397 8.08678Z" fill="#701890"/>
</svg>
