<svg width="32" height="32" viewBox="0 0 32 32" fill="none" xmlns="http://www.w3.org/2000/svg">
<path d="M23.935 7.12964C23.8591 7.19768 23.7995 7.30235 23.7995 7.36515C23.7995 7.44889 24.3467 9.89295 24.5308 10.6466C24.5579 10.7565 24.5417 10.7669 24.3412 10.7669C23.9025 10.7669 23.5178 11.0496 23.442 11.4211C23.4149 11.5677 23.5937 13.3994 23.7237 14.31L23.7562 14.5351H21.1777H18.5991V14.3257V14.1164H19.1192C19.4063 14.1164 19.7421 14.0902 19.8667 14.0536C20.1647 13.9699 20.6143 13.5355 20.701 13.2476C20.7931 12.9493 20.7931 9.84061 20.701 9.55277C20.6685 9.43763 20.533 9.22829 20.403 9.09222C19.9967 8.65783 20.1755 8.67353 16.0098 8.67353C13.2958 8.67353 12.2991 8.68924 12.1312 8.73634C11.8332 8.82007 11.3836 9.25446 11.2969 9.5423C11.2048 9.84584 11.2048 12.9441 11.2969 13.2476C11.3836 13.5355 11.8332 13.9699 12.1312 14.0536C12.2558 14.0902 12.5916 14.1164 12.8787 14.1164H13.3988V14.3257V14.5351H11.8711H10.3381V14.1269C10.3381 13.8129 10.311 13.6768 10.2135 13.4988L10.0943 13.279L10.2135 13.054C10.3869 12.74 10.3814 12.1486 10.2081 11.8136C10.1377 11.6828 10.0293 11.5206 9.96434 11.4578C9.70973 11.1804 9.75307 11.1856 6.87661 11.1856C5.40316 11.1856 4.15724 11.2013 4.10848 11.217C4.00556 11.2589 3.86472 11.5049 3.86472 11.6514C3.86472 11.7142 3.95681 11.8608 4.07056 11.9759C4.24391 12.1643 4.271 12.2323 4.271 12.4417C4.271 12.651 4.24391 12.719 4.06515 12.9075C3.78888 13.2058 3.79971 13.3575 4.15182 13.7448C4.28725 13.9018 4.30892 13.9542 4.28183 14.153C4.25474 14.3885 4.11932 14.5874 3.98931 14.5874C3.7022 14.5874 3.17133 15.0584 3.06299 15.4195C2.97632 15.6812 2.98173 16.3249 3.06299 16.5971C3.18758 17.0053 3.79429 17.4659 4.21141 17.4659C4.29266 17.4659 4.29808 17.7432 4.29808 20.6897C4.29808 23.071 4.31433 23.9711 4.36309 24.1334C4.44976 24.4212 4.89938 24.8556 5.19731 24.9393C5.5115 25.0283 6.18322 25.0178 6.48116 24.9184C6.78993 24.819 7.17454 24.4317 7.26663 24.1229C7.31539 23.9764 7.33164 23.0343 7.33164 20.6897V17.4659H10.3652H13.3988V17.6752V17.8845H12.012C10.4735 17.8845 10.3219 17.9055 9.986 18.1881C9.14636 18.8789 9.5093 20.1768 10.5981 20.3705L10.7986 20.4071V22.1603C10.7986 23.385 10.8202 23.9816 10.8636 24.1334C10.9502 24.4212 11.3999 24.8556 11.6978 24.9393C12.2178 25.0859 12.6837 24.9603 13.0358 24.5834C13.1658 24.4474 13.3012 24.238 13.3338 24.1229C13.3771 23.9816 13.3988 23.364 13.3988 22.1551V20.3966H15.9989H18.5991V22.1551C18.5991 23.385 18.6208 23.9816 18.6641 24.1334C18.7508 24.4212 19.2004 24.8556 19.4984 24.9393C20.0184 25.0859 20.4843 24.9603 20.8364 24.5834C20.9664 24.4474 21.1018 24.238 21.1343 24.1229C21.1777 23.9816 21.1993 23.364 21.1993 22.1551V20.3966H21.3239C21.4973 20.3914 21.9036 20.203 22.0823 20.0407C22.3478 19.8 22.4669 19.5226 22.4669 19.1406C22.4669 18.6068 22.2015 18.2195 21.6869 17.9944C21.4594 17.895 21.3348 17.8845 20.0238 17.8845H18.5991V17.6752V17.4659H21.6327H24.6663V20.6897C24.6663 23.071 24.6825 23.9711 24.7313 24.1334C24.8179 24.4212 25.2676 24.8556 25.5655 24.9393C25.8797 25.0283 26.5514 25.0178 26.8493 24.9184C27.1581 24.819 27.5427 24.4317 27.6348 24.1229C27.6836 23.9764 27.6998 23.0343 27.6998 20.6897C27.6998 17.6072 27.7052 17.4659 27.7973 17.4659C28.0573 17.4659 28.4095 17.2879 28.637 17.0472C28.9187 16.7489 28.9999 16.5081 28.9999 16.0005C28.9999 15.4614 28.9132 15.2364 28.5936 14.9276C28.2632 14.6031 28.0465 14.5351 27.3748 14.5351H26.8764L26.9089 14.31C27.0389 13.3994 27.2177 11.5677 27.1906 11.4211C27.1473 11.1961 26.9198 10.9292 26.6922 10.8402L26.5189 10.7722L26.6814 10.1389C26.8223 9.6051 26.8385 9.48996 26.7789 9.35913C26.6922 9.14979 26.4539 9.05558 26.2372 9.14455C26.0259 9.22829 26.0151 9.24922 25.8038 10.0709C25.533 11.1333 25.5276 11.1228 25.0455 8.99801C24.715 7.56926 24.6175 7.21338 24.52 7.11395C24.3575 6.95694 24.1029 6.96217 23.935 7.12964ZM19.7638 9.64174L19.8992 9.76734V11.395V13.0226L19.7638 13.1482L19.6338 13.279H15.9989H12.3641L12.2341 13.1482L12.0987 13.0226V11.395V9.76734L12.2341 9.64174L12.3641 9.5109H15.9989H19.6338L19.7638 9.64174ZM26.3456 11.6252C26.3456 11.6409 26.2751 12.2742 26.183 13.0435C26.0964 13.8129 26.0205 14.4618 26.0205 14.488C26.0205 14.5141 25.7118 14.5351 25.3163 14.5351C24.9209 14.5351 24.6121 14.5141 24.6121 14.488C24.6121 14.4618 24.5417 13.8129 24.4496 13.0435C24.3629 12.2742 24.2871 11.6409 24.2871 11.6252C24.2871 11.6148 24.7529 11.6043 25.3163 11.6043C25.8851 11.6043 26.3456 11.6148 26.3456 11.6252ZM9.39013 12.1015C9.50388 12.2323 9.52014 12.583 9.42263 12.7295L9.33596 12.8604H7.23413H5.13773V12.4417V12.023H7.22872C9.0001 12.023 9.33054 12.0335 9.39013 12.1015ZM9.39554 13.7867C9.43888 13.8338 9.47138 13.9803 9.47138 14.1164C9.47138 14.556 9.59597 14.5351 7.22872 14.5351H5.13773V14.1164V13.6977H7.22872C9.10844 13.6977 9.33054 13.7082 9.39554 13.7867ZM17.7324 14.3257V14.5351H15.9989H14.2655V14.3257V14.1164H15.9989H17.7324V14.3257ZM27.9978 15.5033C28.1169 15.6132 28.1332 15.676 28.1332 16.0005C28.1332 16.3249 28.1169 16.3877 27.9978 16.4977L27.8677 16.6285H15.9989H4.13015L4.00014 16.4977C3.88097 16.3877 3.86472 16.3249 3.86472 16.0005C3.86472 15.676 3.88097 15.6132 4.00014 15.5033L4.13015 15.3724H15.9989H27.8677L27.9978 15.5033ZM6.46491 20.6845V23.9083L6.32948 24.0339C6.21572 24.1491 6.15072 24.1648 5.81486 24.1648C5.479 24.1648 5.414 24.1491 5.30024 24.0339L5.16481 23.9083V20.6845V17.4659H5.81486H6.46491V20.6845ZM17.7324 17.6752V17.8845H15.9989H14.2655V17.6752V17.4659H15.9989H17.7324V17.6752ZM26.8331 20.6845V23.9083L26.6977 24.0339C26.5839 24.1491 26.5189 24.1648 26.183 24.1648C25.8472 24.1648 25.7822 24.1491 25.6684 24.0339L25.533 23.9083V20.6845V17.4659H26.183H26.8331V20.6845ZM21.4973 18.8527C21.5839 18.9312 21.6327 19.0411 21.6327 19.1406C21.6327 19.24 21.5839 19.3499 21.4973 19.4284L21.3673 19.5593H15.9989H10.6306L10.5006 19.4284C10.414 19.3499 10.3652 19.24 10.3652 19.1406C10.3652 19.0411 10.414 18.9312 10.5006 18.8527L10.6306 18.7219H15.9989H21.3673L21.4973 18.8527ZM12.532 22.1394C12.532 23.8194 12.5266 23.8874 12.4237 23.9973C12.2178 24.2066 11.9199 24.1909 11.7357 23.9607C11.687 23.8979 11.6707 23.4216 11.6653 22.1342V20.3966H12.0987H12.532V22.1394ZM20.3326 22.1394C20.3326 23.8194 20.3272 23.8874 20.2243 23.9973C20.0184 24.2066 19.7205 24.1909 19.5363 23.9607C19.4875 23.8979 19.4713 23.4216 19.4659 22.1342V20.3966H19.8992H20.3326V22.1394Z" fill="#701890"/>
</svg>
