<?xml version="1.0" standalone="no"?>
<!DOCTYPE svg PUBLIC "-//W3C//DTD SVG 20010904//EN"
 "http://www.w3.org/TR/2001/REC-SVG-20010904/DTD/svg10.dtd">
<svg version="1.0" xmlns="http://www.w3.org/2000/svg"
 width="512.000000pt" height="512.000000pt" viewBox="0 0 512.000000 512.000000"
 preserveAspectRatio="xMidYMid meet">

<g transform="translate(0.000000,512.000000) scale(0.100000,-0.100000)"
fill="#701890" stroke="none">
<path d="M3130 4257 c-27 -8 -212 -187 -813 -786 -466 -464 -787 -792 -800
-816 -27 -51 -28 -136 -3 -185 25 -49 1541 -1566 1591 -1592 128 -67 291 22
303 166 9 107 40 71 -711 823 l-692 693 697 697 c685 687 696 699 706 748 35
169 -112 302 -278 252z"/>
</g>
</svg>
