<svg width="64" height="64" viewBox="0 0 64 64" fill="none" xmlns="http://www.w3.org/2000/svg">
<path d="M8.8883 0.309948L8.6133 0.597446L8.6508 5.52245L8.6883 10.4474L9.0883 11.2599C9.5258 12.1474 10.2883 12.9974 11.0633 13.4474C11.3383 13.6099 12.7883 14.1599 14.2883 14.6724C15.7883 15.1849 17.0508 15.6349 17.0883 15.6849C17.1258 15.7224 17.0633 16.2474 16.9508 16.8349C15.6633 23.3099 10.6883 27.8724 4.1008 28.6474C3.4133 28.7224 2.3883 28.7599 1.8258 28.7349C1.1258 28.6849 0.713297 28.7224 0.488297 28.8349C-0.0867029 29.1224 -0.161703 29.6849 0.300797 30.2224L0.600797 30.5724L2.5883 30.5599C4.1008 30.5474 4.8633 30.4849 5.8383 30.2724C9.2508 29.5474 11.8383 28.1724 14.2008 25.8224C16.5383 23.4849 18.2008 20.4224 18.7508 17.3724C18.8383 16.9349 18.9133 16.4974 18.9508 16.4224C19.0008 16.2349 26.3758 18.6974 27.5633 19.2974C28.7633 19.8974 29.7508 20.6099 30.7633 21.6224C32.2383 23.0974 33.1258 24.5474 33.7633 26.5099L34.1008 27.5599L32.8383 28.2349C31.1508 29.1224 29.1008 30.4849 27.5633 31.7224C25.9758 32.9974 23.4633 35.5849 22.2508 37.1849L21.3133 38.4224L21.2758 37.5599C21.2508 36.8849 21.1758 36.6349 20.9758 36.4224C20.6008 36.0099 19.9758 36.0349 19.6383 36.4599C19.3883 36.7849 19.3758 36.9224 19.3758 41.9974C19.3758 47.4724 19.2758 49.0474 18.7508 51.5099C18.0008 55.0099 16.5258 58.5724 14.5758 61.5724C14.1258 62.2599 13.7508 62.9474 13.7508 63.1099C13.7508 63.4849 14.2758 64.0099 14.6508 64.0099C14.8133 64.0099 15.0633 63.9224 15.2133 63.8224C15.8383 63.3849 18.0258 59.5724 18.8883 57.3974L19.3133 56.3474L19.3758 59.9474C19.4383 63.5349 19.4383 63.5349 19.7383 63.7724C20.1383 64.0974 20.5758 64.0724 20.9383 63.6974L21.2508 63.3974V52.7349V42.0724L22.0758 40.7599C24.3758 37.0724 27.4258 33.9099 30.9383 31.5724C32.2508 30.6974 34.0758 29.6349 34.2883 29.6349C34.3383 29.6349 34.3633 30.1849 34.3508 30.8474L34.3133 32.0599L32.1258 33.0349C30.9258 33.5724 29.8633 34.0849 29.7758 34.1849C29.4758 34.4849 29.5508 35.1474 29.9258 35.4724C30.1133 35.6224 30.3508 35.7599 30.4508 35.7599C30.5508 35.7599 31.4008 35.4224 32.3508 34.9974C33.2883 34.5724 34.1383 34.2099 34.2258 34.1724C34.3383 34.1224 34.3758 35.4349 34.3758 40.4974V46.8974L34.6883 47.1974C35.0758 47.5974 35.6133 47.6099 35.9758 47.2224C36.2508 46.9349 36.2508 46.9099 36.2758 40.0849L36.3133 33.2349L37.5383 32.6849L38.7633 32.1349L39.3508 32.7099C40.5008 33.8724 42.4133 34.4099 43.9508 34.0224C44.8508 33.7974 48.4133 32.1599 48.6633 31.8724C48.7758 31.7224 48.8758 31.4724 48.8758 31.2974C48.8758 30.9349 48.3633 30.3849 48.0133 30.3849C47.8758 30.3849 46.8008 30.8099 45.6383 31.3224C43.3258 32.3474 42.6383 32.4724 41.6508 32.0599C40.0383 31.3974 39.3508 29.4349 40.1883 27.9099C40.3883 27.5349 40.6883 27.1349 40.8633 27.0224C41.2133 26.7724 42.2008 26.2599 42.3133 26.2599C42.3508 26.2599 42.5133 26.5474 42.6758 26.8849C43.0633 27.7349 43.3383 28.0099 43.7758 28.0099C44.1883 28.0099 44.7508 27.5224 44.7508 27.1599C44.7508 27.0224 44.6133 26.5974 44.4383 26.1974C44.2633 25.7974 44.1383 25.4599 44.1633 25.4349C44.2383 25.3599 45.6383 24.7599 45.7383 24.7599C45.8008 24.7599 45.9633 25.0474 46.1133 25.3849C46.6008 26.5099 47.1258 26.7724 47.8008 26.2474C48.2133 25.9224 48.2258 25.5099 47.8258 24.5974L47.5133 23.9099L48.3758 23.5349L49.2258 23.1599L49.5633 23.8974C50.1008 25.0974 50.8008 25.3099 51.4133 24.4849L51.6758 24.1349L51.3383 23.3099C51.1633 22.8474 51.0383 22.4349 51.0633 22.3849C51.1383 22.2599 52.5008 21.7099 52.5508 21.7724C52.6633 21.8849 54.8758 26.9474 54.8758 27.0724C54.8758 27.1474 54.1258 27.5349 53.2258 27.9349C51.5633 28.6599 51.0008 29.0599 51.0008 29.5224C51.0008 29.8099 51.6383 30.5099 51.9008 30.5099C51.9883 30.5099 53.0508 30.0724 54.2508 29.5349C56.1008 28.7224 56.4758 28.4974 56.7258 28.1349C56.9508 27.7974 57.0008 27.5974 56.9508 27.2599C56.9133 27.0224 56.8633 26.7099 56.8508 26.5849C56.8133 26.3849 57.2258 26.1599 59.2508 25.2474C60.5883 24.6474 61.7258 24.1474 61.7633 24.1349C61.8008 24.1349 61.9383 24.3599 62.0633 24.6474C62.4633 25.5349 63.1383 25.7599 63.6883 25.1974C63.8633 25.0349 64.0008 24.7849 64.0008 24.6349C64.0008 24.3724 60.9008 17.3224 60.5508 16.7849C60.2758 16.3599 59.4383 16.4349 59.0883 16.9099L58.8383 17.2474L59.1008 17.9474L59.3758 18.6474L59.0883 18.7474C58.9383 18.8099 57.8008 19.3224 56.5758 19.8724C55.3383 20.4349 54.3258 20.8849 54.3008 20.8849C54.2883 20.8849 54.1633 20.6849 54.0133 20.4474C53.7133 19.9224 53.0008 19.5724 52.5133 19.6974C51.9258 19.8474 40.4508 25.0099 39.9508 25.3599C38.6883 26.2224 37.9758 27.6974 37.9758 29.3849V30.4474L37.3258 30.7224C36.9758 30.8724 36.6008 31.0349 36.4883 31.0724C36.3133 31.1349 36.2758 30.9474 36.2133 29.6099C36.0383 25.9974 34.6383 22.8724 32.0758 20.3099C30.8383 19.0724 29.8633 18.3599 28.3883 17.6224C27.8633 17.3599 24.3383 16.0974 20.5633 14.8224C16.7758 13.5474 13.3258 12.3724 12.8883 12.2224C11.9258 11.8849 11.1258 11.2224 10.7633 10.4474C10.5133 9.90995 10.5008 9.70995 10.5008 5.38495C10.5008 1.67245 10.4633 0.809948 10.3133 0.522449C10.0133 -0.0775528 9.3383 -0.177551 8.8883 0.309948ZM60.6008 21.3474C60.8258 21.8724 60.9633 22.3474 60.9133 22.3974C60.7633 22.5474 55.9883 24.6724 55.9383 24.6099C55.9008 24.5849 55.6883 24.1224 55.4383 23.5849L55.0008 22.6224L55.4133 22.4474C55.6258 22.3474 56.7383 21.8474 57.8758 21.3349C59.0133 20.8224 60.0008 20.3974 60.0633 20.3974C60.1383 20.3974 60.3758 20.8224 60.6008 21.3474Z" fill="#701890"/>
<path d="M38.8133 0.184952C34.6883 1.00995 31.4508 4.02245 30.3633 8.07245C29.9508 9.60995 29.9758 12.0599 30.4258 13.5475C31.6008 17.4599 34.5508 20.2724 38.4633 21.2099C39.7133 21.5224 42.0258 21.4849 43.3133 21.1474C49.4508 19.5349 52.9008 13.21 50.8758 7.28495C49.7383 3.95995 46.9758 1.37245 43.4758 0.384951C42.2883 0.047451 40.0258 -0.0525494 38.8133 0.184952ZM43.0633 2.19745C43.9258 2.42245 45.3883 3.13495 45.9383 3.57245L46.3133 3.88495L45.1258 5.07245L43.9258 6.27245L43.3758 5.95995C43.0633 5.79745 42.5758 5.58495 42.3008 5.50995C41.7883 5.35995 41.7883 5.34745 41.7133 4.64745C41.6508 4.09745 41.5633 3.88495 41.3133 3.65995C41.1383 3.50995 40.8758 3.38495 40.7508 3.38495C40.6258 3.38495 40.3633 3.50995 40.1883 3.65995C39.9383 3.88495 39.8508 4.09745 39.7883 4.64745C39.7133 5.34745 39.7133 5.35995 39.2008 5.50995C38.9258 5.58495 38.4383 5.79745 38.1383 5.95995L37.5883 6.25995L37.0508 5.75995C36.3133 5.08495 35.7883 5.09745 35.4258 5.78495C35.1883 6.24745 35.2883 6.57245 35.8258 7.14745L36.2633 7.58495L35.9508 8.14745C35.7883 8.44745 35.5883 8.93495 35.5008 9.22245L35.3633 9.75995H34.7383C34.2008 9.75995 34.0508 9.82245 33.7383 10.1224C33.3133 10.5599 33.2883 10.86 33.6383 11.3099C33.8633 11.5975 33.9883 11.6349 34.6133 11.6349H35.3383L35.5008 12.16C35.5883 12.46 35.7883 12.9725 35.9633 13.3099L36.2758 13.9225L35.0883 15.11L33.8883 16.31L33.6383 15.9975C33.2133 15.485 32.3883 13.7474 32.1633 12.8849C31.8758 11.7725 31.8758 9.59745 32.1758 8.50995C33.0758 5.20995 35.8883 2.59745 39.1633 2.00995C40.0633 1.85995 42.1633 1.94745 43.0633 2.19745ZM48.0258 5.73495C49.0883 7.33495 49.5633 8.84745 49.5508 10.6974C49.5508 12.3475 49.3383 13.2725 48.6008 14.7599C48.1758 15.6224 47.8758 16.035 46.9508 16.9475C46.0383 17.86 45.6133 18.1849 44.7508 18.6099C44.1633 18.8974 43.3008 19.2224 42.8133 19.3349C41.6758 19.6099 39.7008 19.6099 38.6258 19.3349C37.7508 19.1099 36.0008 18.285 35.5133 17.8725L35.2008 17.6225L36.4008 16.4225L37.5883 15.235L38.1383 15.5225C38.4383 15.6725 38.9133 15.8725 39.1883 15.9475C39.6758 16.0975 39.6883 16.11 39.7758 16.8225C39.8883 17.71 40.1383 18.01 40.7508 18.01C41.3633 18.01 41.6133 17.71 41.7258 16.8225C41.8133 16.11 41.8258 16.0975 42.3133 15.9475C42.5883 15.8725 43.0633 15.6725 43.3633 15.5225L43.9008 15.235L44.3758 15.6975C44.9758 16.285 45.5383 16.3349 45.9633 15.8349C46.3633 15.36 46.3258 15.0849 45.7383 14.4599L45.2383 13.9099L45.5383 13.2975C45.7133 12.9725 45.9133 12.46 46.0008 12.16L46.1633 11.6349H46.8883C47.5133 11.6349 47.6383 11.5975 47.8633 11.3099C48.2133 10.86 48.1883 10.5599 47.7633 10.1224C47.4508 9.82245 47.3008 9.75995 46.7633 9.75995H46.1383L46.0008 9.22245C45.9133 8.93495 45.7133 8.44745 45.5383 8.14745L45.2258 7.60995L46.3883 6.43495C47.0383 5.78495 47.5883 5.25995 47.6383 5.25995C47.6758 5.25995 47.8633 5.47245 48.0258 5.73495ZM42.1133 7.44745L42.5383 7.65995L40.1133 10.085C37.4133 12.785 37.5133 12.735 37.2508 11.4225C36.9008 9.74745 37.9633 7.90995 39.5883 7.34745C40.3258 7.08495 41.5258 7.13495 42.1133 7.44745ZM44.2508 10.085C44.6008 11.7599 43.6133 13.4974 42.0133 14.0725C41.3133 14.3224 40.0383 14.3099 39.4383 14.0599L38.9633 13.86L41.3883 11.4349C44.0758 8.73495 43.9883 8.78495 44.2508 10.085Z" fill="#701890"/>
<path d="M34.6884 50.3224L34.3759 50.6224V57.0099V63.3974L34.6884 63.6974C35.0759 64.0974 35.5509 64.0974 35.9384 63.6974L36.2509 63.3974V57.0099V50.6224L35.9384 50.3224C35.7759 50.1474 35.4884 50.0099 35.3134 50.0099C35.1384 50.0099 34.8509 50.1474 34.6884 50.3224Z" fill="#701890"/>
</svg>
