<svg width="64" height="64" viewBox="0 0 64 64" fill="none" xmlns="http://www.w3.org/2000/svg">
<path d="M11.4875 4.7125C11.3375 4.875 11.3125 6.5125 11.275 13.9625L11.25 23.0125L11.55 23.3125L11.8625 23.625H15.625C17.6875 23.625 19.375 23.65 19.375 23.675C19.375 23.7125 19.1625 24.0625 18.8875 24.4625C18.625 24.8625 18.3125 25.375 18.2 25.5875L17.9875 26H11.15C5.1625 26 4.275 26.025 4.025 26.2L3.75 26.3875V42.8125V59.2375L4.025 59.425C4.275 59.6 5.65 59.625 16.375 59.625C27.1 59.625 28.475 59.6 28.725 59.425C29 59.2375 29 59.225 29 55.1625V51.1L29.2875 51.175C30.35 51.475 32.0125 51.6625 33.5625 51.6625C36.375 51.6625 38.6375 51.1625 41.1625 49.9625L42.5125 49.3375L47.2875 54.075C51.6375 58.4 52.1375 58.8625 52.875 59.2C53.5625 59.5125 53.85 59.5625 54.75 59.5625C55.6625 59.5625 55.9125 59.5125 56.5125 59.2125C57.2875 58.8375 58.2125 57.925 58.6 57.175C58.975 56.45 59.1375 55.3875 59 54.575C58.7625 53.1125 58.6875 53.0125 53.575 47.875L48.775 43.0625L49.3875 41.8125C50.575 39.3625 51 37.6 51.0875 34.75C51.15 32.8 51 31.1 50.675 29.9L50.6 29.625H52.85C54.875 29.625 55.125 29.6 55.3875 29.3875L55.6875 29.15V20.5C55.6875 12.0875 55.675 11.85 55.45 11.675C55.0875 11.4125 40.9125 11.4125 40.55 11.675C40.325 11.8375 40.3125 12.05 40.275 14.8C40.25 16.425 40.2 17.75 40.1625 17.75C40.125 17.75 39.5625 17.575 38.9125 17.375C38.275 17.1625 37.6625 17 37.5625 17C37.4 17 37.375 16.225 37.375 10.9625C37.375 5.2625 37.3625 4.9 37.15 4.7125C36.9375 4.5125 35.8625 4.5 24.2875 4.5C12.6875 4.5 11.6375 4.5125 11.4875 4.7125ZM35.875 11.325V16.6625L34.85 16.5875C33.675 16.5 33.7875 16.575 32.9 15.0625C32.2 13.875 31.7125 13.5 30.8875 13.5C30.0125 13.5 29.6125 13.825 28.6375 15.3375L27.775 16.675L27.1625 15.7C25.175 12.5125 24.9125 12.25 23.85 12.25C22.7375 12.25 22.45 12.5125 21.05 14.775C20.4625 15.725 19.9375 16.5 19.9 16.5C19.85 16.5 19.6 16.1375 19.35 15.7125C18.6625 14.575 18.2625 14.225 17.525 14.15C16.875 14.0875 16.3625 14.275 15.9875 14.7C15.875 14.8375 15.15 16.0625 14.375 17.4375C13.6125 18.8125 12.925 19.9875 12.8625 20.0625C12.8 20.125 12.75 17.3 12.75 13.0875V6H24.3125H35.875V11.325ZM54.225 20.525C54.1875 27.5875 54.175 28.0625 53.975 28.1C53.775 28.1375 53.75 28.0125 53.75 26.85C53.75 25.3625 53.5375 24.4875 52.975 23.6C52.4875 22.825 51.8125 22.2375 50.9625 21.8375L50.2625 21.5L50.6 20.9125C50.9125 20.3625 50.9375 20.2 50.9375 18.9375C50.9375 17.35 50.75 16.8375 49.875 16.1C48.7625 15.1375 47.2375 15.1375 46.125 16.1C45.25 16.8375 45.0625 17.35 45.0625 18.9375C45.0625 20.0125 45.1125 20.4 45.2875 20.725C45.4875 21.1 45.4375 21.075 44.5375 20.3625C44 19.95 43.175 19.3625 42.6875 19.0625L41.8125 18.5375L41.775 15.7625L41.75 13H48H54.25L54.225 20.525ZM24.6625 14.5375C25.425 15.7375 25.425 15.6625 24.85 16.1L24.35 16.4875L23.8625 16.175C23.2625 15.8 23.1375 15.8 22.35 16.2L21.7 16.525L21.9 16.2375C22 16.075 22.325 15.5375 22.625 15.0625C22.9125 14.575 23.3 14.0625 23.4625 13.9C23.8625 13.5375 24.1125 13.675 24.6625 14.5375ZM31.3 15.2875C31.675 15.7875 31.7 15.9125 31.4125 15.825C31.2875 15.7875 31.025 15.8375 30.825 15.9375C30.525 16.1 30.425 16.1 30.2875 15.975C30.15 15.8375 30.1875 15.725 30.4375 15.3375C30.6125 15.0875 30.8125 14.875 30.875 14.875C30.9375 14.875 31.125 15.0625 31.3 15.2875ZM18.2125 16.7C18.7375 17.55 18.825 17.75 18.6375 17.75C18.5125 17.75 18.1875 17.9125 17.925 18.1L17.4375 18.4625L16.9 18.2C16.3875 17.95 16.3375 17.95 15.9875 18.15C15.7875 18.2625 15.625 18.35 15.625 18.325C15.625 18.2375 16.7875 16.2 17.025 15.85C17.15 15.6625 17.325 15.5375 17.4125 15.575C17.5 15.6125 17.85 16.1125 18.2125 16.7ZM48.9 17.2125C49.2875 17.55 49.5 18.1625 49.5 18.9375C49.5 20.25 48.9875 20.9375 48 20.9375C46.9375 20.9375 46.425 20.1625 46.525 18.675C46.575 17.825 46.8375 17.325 47.3875 17.025C47.775 16.8125 48.575 16.9125 48.9 17.2125ZM26.75 17.8125C26.75 17.8375 26.25 18.125 25.625 18.4375C24.25 19.15 23.1375 19.925 21.725 21.175L20.625 22.1375L19.45 22.1L18.275 22.0625L19.525 20.0625C20.2125 18.9625 20.8375 18.0875 20.9125 18.1125C21.4625 18.3 21.7875 18.25 22.4375 17.8875L23.1375 17.4875L23.675 17.8125C24.3625 18.2125 24.6875 18.2125 25.2 17.7625C25.6125 17.3875 25.625 17.3875 26.1875 17.575C26.5 17.6875 26.75 17.7875 26.75 17.8125ZM36.5875 18.3125C41.425 19.25 45.625 22.375 47.85 26.7125C49.1125 29.1875 49.6375 31.35 49.6375 34.125C49.6375 36.8875 49.1125 39.0625 47.8625 41.5125C45.625 45.875 41.5875 48.8875 36.5625 49.95C35.0375 50.275 32.05 50.2375 30.4125 49.8875C24.7 48.675 20.1375 44.65 18.325 39.225C17.725 37.45 17.5625 36.3375 17.5625 34.125C17.5625 31.9125 17.725 30.8 18.325 29.025C19.625 25.125 22.5875 21.6625 26.1875 19.85C27.9375 18.9625 29.75 18.3875 31.575 18.1375C32.725 17.975 35.325 18.0625 36.5875 18.3125ZM17.425 20.125C17.5375 20.125 17.625 20.1625 17.625 20.2C17.625 20.25 17.3625 20.7 17.05 21.2L16.475 22.125H14.975H13.475L13.9125 21.3375C14.15 20.9125 14.4 20.4375 14.4875 20.2875C14.6125 20.05 14.6625 20.0375 15.05 20.15C15.4125 20.2625 15.525 20.2375 15.95 19.9625L16.425 19.6375L16.825 19.875C17.0375 20.0125 17.3125 20.125 17.425 20.125ZM50.525 23.2875C51.7875 24.025 52.25 24.9875 52.25 26.9V28.125H51.175C50.1625 28.125 50.1 28.1125 50.025 27.8375C49.875 27.225 48.4625 24.6375 47.8125 23.7625L47.1125 22.85L48.525 22.8875C49.8 22.9375 50 22.975 50.525 23.2875ZM17.1875 27.7125C17.025 28.1625 16.5125 29.825 16.475 30.0625C16.4375 30.3 16.3125 30.3125 13.5625 30.3875C11.975 30.425 10.675 30.4625 10.6625 30.475C10.65 30.4875 10.55 30.5875 10.45 30.7C10.2 30.95 10.2 31.425 10.45 31.675C10.6125 31.85 11.0625 31.875 13.3875 31.875C16.4375 31.875 16.2125 31.8 16.05 32.775L15.9625 33.25H11.4875C7.1625 33.25 6.9875 33.2625 6.75 33.5C6.45 33.8 6.425 34.2125 6.7125 34.525C6.9 34.7375 7.2125 34.75 11.4375 34.75H15.975L16.025 35.2625C16.05 35.5375 16.05 35.7875 16.0125 35.825C15.9875 35.85 13.9375 35.875 11.4625 35.875C7.45 35.875 6.9375 35.9 6.725 36.0875C6.45 36.325 6.4375 36.7375 6.675 37.075C6.85 37.3 7.0875 37.3125 11.575 37.375L16.3 37.4375L16.45 38.0375L16.6 38.6375L16.175 38.8125C15.8125 38.9625 15.75 39.05 15.75 39.425C15.75 39.95 16.1 40.25 16.7 40.25C17.0375 40.25 17.125 40.3125 17.2875 40.7125L17.475 41.1875L16.8375 41.225C16.0875 41.275 15.75 41.5125 15.75 42C15.75 42.5625 16.075 42.7375 17.2375 42.775L18.275 42.8125L18.5875 43.3375L18.9 43.875H17.4625C15.8625 43.875 15.7 43.95 15.775 44.65C15.8375 45.275 16.15 45.375 18.2625 45.375H20.0875L20.4875 45.875L20.8875 46.375H18.55C16.55 46.375 16.175 46.4 15.975 46.5875C15.7 46.8375 15.6875 47.35 15.9625 47.65C16.15 47.8625 16.425 47.875 19.35 47.875H22.5375L23.4125 48.475L24.275 49.0625L15.6125 49.1C7.775 49.125 6.9375 49.15 6.725 49.3375C6.45 49.575 6.4375 49.9875 6.675 50.325C6.85 50.5625 7.1 50.5625 16.3125 50.5625C25.3625 50.5625 25.775 50.55 25.9375 50.3375C26.1 50.1125 26.125 50.1125 26.775 50.35L27.4375 50.6L27.475 54.3625L27.5 58.125H16.375H5.25V42.8125V27.5H11.2625C16.9375 27.5 17.275 27.5125 17.1875 27.7125ZM57.2875 54C57.8375 55.2 57.525 56.5375 56.4875 57.4125C55.5 58.2625 54.1 58.3125 53 57.5625C52.7625 57.3875 50.6 55.2875 48.1875 52.875L43.8125 48.4875L44.3125 48.0875C45.15 47.4375 46.8625 45.7375 47.4 45.025L47.925 44.3625L52.475 48.9C55.85 52.2625 57.0875 53.5875 57.2875 54Z" fill="#701890"/>
<path d="M27.625 7.23754C26.2875 7.67504 25.5875 8.60004 25.575 9.95004C25.575 10.8875 26.0125 11.7125 26.775 12.2125C27.475 12.6875 28.7375 12.7625 29.4625 12.4C30.525 11.85 31.0625 10.875 30.975 9.62504C30.9125 8.72504 30.475 8.02504 29.7 7.56254C29.1125 7.22504 28.1375 7.06254 27.625 7.23754ZM28.875 8.81254C29.3375 9.05004 29.5 9.35004 29.5 9.95004C29.5 10.6375 29 11.125 28.3125 11.125C27.675 11.125 27.3125 10.875 27.125 10.3125C26.7625 9.20004 27.8375 8.27504 28.875 8.81254Z" fill="#701890"/>
<path d="M31.475 20.8125C27.3625 21.4875 23.75 24.05 21.7125 27.75C21.125 28.8125 20.425 30.9375 20.2625 32.1625C19.5875 37.1 21.5625 41.9 25.4875 44.8875C26.5625 45.7 28.8 46.8 30.0625 47.125C33.9375 48.125 37.8 47.4875 41.1 45.2875C43.1125 43.95 44.65 42.15 45.7375 39.8625C46.7875 37.675 47.2 35.3875 46.9875 32.9375C46.85 31.25 46.4625 29.9125 45.625 28.1875C43.8375 24.525 40.8 22.075 36.7625 21.05C35.225 20.6625 33.0125 20.5625 31.475 20.8125ZM35.2125 22.2625C40.175 22.9375 44.2875 26.775 45.3125 31.7C45.5875 32.9875 45.5875 35.2625 45.3125 36.5625C44.3 41.4625 40.325 45.1875 35.325 45.95C30.75 46.6625 26.1125 44.55 23.525 40.5875C20.975 36.6875 21.025 31.35 23.6375 27.4875C26.2 23.6875 30.7125 21.65 35.2125 22.2625Z" fill="#701890"/>
<path d="M26.825 27.3875C25.9875 28.05 24.7625 30.1875 24.35 31.7375C24 33.0625 24 35.2 24.3625 36.5375C24.675 37.75 25.425 39.2 26.25 40.2125C26.975 41.1125 27.275 41.25 27.7375 40.9125C28.25 40.525 28.2 40.2625 27.45 39.325C26.15 37.6875 25.5875 36.1125 25.5875 34.125C25.5875 32.1375 26.15 30.5625 27.45 28.9375C28.1875 28 28.25 27.75 27.875 27.375C27.55 27.05 27.2375 27.0625 26.825 27.3875Z" fill="#701890"/>
<path d="M6.75 38.7375C6.675 38.9 6.625 40.575 6.625 43.35C6.625 47.4125 6.6375 47.725 6.85 47.9125C7.05 48.1 7.5 48.125 10.525 48.125C13.7 48.125 13.975 48.1125 14.1625 47.9C14.35 47.6875 14.375 47.1875 14.375 43.2875C14.375 39.2125 14.3625 38.9 14.15 38.7125C13.95 38.525 13.5 38.5 10.4 38.5C7.05 38.5 6.875 38.5125 6.75 38.7375ZM12.875 43.3125V46.625H10.5H8.125V43.3125V40H10.5H12.875V43.3125Z" fill="#701890"/>
<path d="M6.75002 51.875C6.45002 52.175 6.43752 52.475 6.70002 52.85L6.88752 53.125H16.3C25.2625 53.125 25.725 53.1125 25.9125 52.9C26.2 52.5875 26.175 52.175 25.875 51.875C25.625 51.625 25.4625 51.625 16.3125 51.625C7.16252 51.625 7.00002 51.625 6.75002 51.875Z" fill="#701890"/>
<path d="M6.71248 54.475C6.34998 54.875 6.44998 55.3375 6.96248 55.6125C7.34998 55.8125 25.275 55.8125 25.6625 55.6125C26.175 55.3375 26.2875 54.8125 25.9 54.4625C25.6875 54.2625 24.8375 54.25 16.2875 54.25C7.36248 54.25 6.89998 54.2625 6.71248 54.475Z" fill="#701890"/>
</svg>
