<?xml version="1.0" standalone="no"?>
<!DOCTYPE svg PUBLIC "-//W3C//DTD SVG 20010904//EN"
 "http://www.w3.org/TR/2001/REC-SVG-20010904/DTD/svg10.dtd">
<svg version="1.0" xmlns="http://www.w3.org/2000/svg"
 width="512.000000pt" height="512.000000pt" viewBox="0 0 512.000000 512.000000"
 preserveAspectRatio="xMidYMid meet">

<g transform="translate(0.000000,512.000000) scale(0.100000,-0.100000)"
fill="#000000" stroke="none">
<path d="M2372 4816 c-374 -71 -675 -303 -834 -643 -109 -233 -129 -548 -51
-798 200 -639 912 -965 1523 -696 318 139 550 414 642 759 29 112 36 346 13
467 -43 234 -144 426 -314 596 -145 146 -315 242 -520 296 -120 31 -344 40
-459 19z m324 -287 c336 -59 596 -304 675 -636 18 -73 20 -109 17 -218 -4
-112 -9 -143 -37 -225 -92 -275 -307 -476 -586 -551 -112 -30 -298 -30 -410 0
-307 82 -539 322 -609 629 -20 90 -21 258 -1 352 68 324 325 577 655 645 80
16 217 18 296 4z"/>
<path d="M2290 2356 c-601 -77 -1120 -369 -1459 -821 -224 -298 -345 -618
-371 -983 -11 -163 3 -212 73 -246 32 -15 197 -16 2027 -16 1830 0 1995 1
2027 16 70 34 84 83 73 246 -33 453 -219 857 -550 1189 -260 260 -564 439
-930 544 -196 56 -338 76 -575 80 -138 3 -246 0 -315 -9z m523 -291 c622 -82
1154 -448 1407 -969 73 -149 120 -307 144 -479 l5 -37 -1810 0 -1810 0 6 38
c19 119 40 207 66 287 204 613 780 1064 1479 1160 131 18 376 18 513 0z"/>
</g>
</svg>
