<?xml version="1.0" standalone="no"?>
<!DOCTYPE svg PUBLIC "-//W3C//DTD SVG 20010904//EN"
 "http://www.w3.org/TR/2001/REC-SVG-20010904/DTD/svg10.dtd">
<svg version="1.0" xmlns="http://www.w3.org/2000/svg"
 width="512.000000pt" height="512.000000pt" viewBox="0 0 512.000000 512.000000"
 preserveAspectRatio="xMidYMid meet">

<g transform="translate(0.000000,512.000000) scale(0.100000,-0.100000)"
fill="#E5E5E5" stroke="none">
<path d="M484 5111 c-47 -12 -133 -62 -160 -94 -14 -17 -37 -53 -52 -81 l-27
-51 -3 -418 -3 -417 25 -25 25 -25 216 0 215 0 0 -640 0 -640 -135 0 c-131 0
-137 -1 -160 -25 -14 -13 -25 -33 -25 -44 0 -10 72 -596 160 -1300 88 -705
160 -1286 160 -1291 0 -6 11 -22 25 -35 l24 -25 1071 0 1071 0 22 23 c21 21
32 99 182 1300 88 702 162 1277 166 1277 3 0 261 -261 573 -580 541 -554 569
-580 603 -580 33 0 50 14 225 187 104 103 191 198 195 211 3 13 1 33 -4 45 -6
12 -112 126 -237 254 l-227 232 140 138 c152 150 181 195 203 312 15 80 -2
178 -45 254 -39 68 -845 901 -919 948 -116 75 -276 81 -402 17 -22 -11 -105
-81 -184 -156 l-144 -135 -48 54 -49 54 -3 515 -3 515 -34 63 c-38 70 -69 100
-145 140 l-51 27 -1105 2 c-608 0 -1119 -2 -1136 -6z m164 -178 c14 -10 35
-32 46 -47 20 -26 21 -42 24 -377 l3 -349 -161 0 -160 0 0 334 c0 213 4 345
11 363 14 37 47 72 84 89 40 19 119 12 153 -13z m2056 13 c18 -8 46 -31 62
-52 l29 -37 3 -421 3 -420 -109 107 c-84 83 -115 107 -136 107 -21 0 -67 -38
-221 -185 -204 -196 -223 -222 -192 -268 8 -12 159 -170 336 -351 l321 -329 0
-189 0 -188 -960 0 -960 0 0 1058 c0 1080 0 1081 -35 1165 -7 16 40 17 909 17
761 0 922 -2 950 -14z m917 -2000 c580 -593 1054 -1083 1054 -1090 0 -6 -49
-59 -110 -117 l-110 -106 -835 854 c-459 470 -938 960 -1064 1089 l-229 236
109 109 c60 60 114 108 120 107 6 -2 485 -488 1065 -1082z m67 950 c44 -23
865 -867 887 -912 27 -55 26 -156 -2 -209 -12 -22 -78 -96 -147 -165 l-126
-125 -58 58 -57 57 120 119 c66 66 124 130 129 143 6 17 4 33 -5 50 -8 15
-196 211 -417 437 -382 389 -406 411 -440 411 -32 0 -47 -12 -159 -122 l-123
-122 -58 57 -57 57 115 116 c63 63 134 126 156 140 73 43 170 47 242 10z m482
-940 l75 -78 -85 -79 c-46 -44 -88 -78 -92 -77 -4 2 -157 156 -339 343 l-332
339 87 83 87 83 262 -267 c144 -148 296 -303 337 -347z m-1048 -188 l40 -48
-101 0 -101 0 0 107 0 107 61 -59 c33 -33 79 -81 101 -107z m-17 -240 c-5 -31
-295 -2351 -295 -2363 0 -3 -436 -5 -970 -5 -533 0 -970 2 -970 5 0 12 -290
2332 -295 2363 l-6 32 1271 0 1271 0 -6 -32z"/>
<path d="M1145 4695 c-16 -15 -25 -36 -25 -55 0 -19 9 -40 25 -55 l24 -25 671
0 671 0 24 25 c33 32 33 78 0 110 l-24 25 -671 0 -671 0 -24 -25z"/>
<path d="M1145 4295 c-16 -15 -25 -36 -25 -55 0 -19 9 -40 25 -55 l24 -25 471
0 471 0 24 25 c33 32 33 78 0 110 l-24 25 -471 0 -471 0 -24 -25z"/>
<path d="M1145 3895 c-16 -15 -25 -36 -25 -55 0 -19 9 -40 25 -55 l24 -25 351
0 351 0 24 25 c16 15 25 36 25 55 0 19 -9 40 -25 55 l-24 25 -351 0 -351 0
-24 -25z"/>
<path d="M1145 3495 c-16 -15 -25 -36 -25 -55 0 -19 9 -40 25 -55 l24 -25 471
0 471 0 24 25 c33 32 33 78 0 110 l-24 25 -471 0 -471 0 -24 -25z"/>
<path d="M1145 3095 c-16 -15 -25 -36 -25 -55 0 -19 9 -40 25 -55 l24 -25 671
0 671 0 24 25 c33 32 33 78 0 110 l-24 25 -671 0 -671 0 -24 -25z"/>
<path d="M1065 2215 c-14 -13 -25 -32 -25 -42 0 -10 36 -364 81 -788 56 -532
85 -777 95 -792 28 -44 101 -42 130 2 16 24 12 70 -66 808 -45 430 -86 790
-91 799 -23 43 -88 50 -124 13z"/>
<path d="M1785 2215 l-25 -24 0 -791 0 -791 25 -24 c15 -16 36 -25 55 -25 19
0 40 9 55 25 l25 24 0 791 0 791 -25 24 c-15 16 -36 25 -55 25 -19 0 -40 -9
-55 -25z"/>
<path d="M2518 2229 c-10 -5 -22 -18 -27 -27 -5 -9 -46 -369 -91 -799 -78
-738 -82 -784 -66 -808 29 -44 102 -46 130 -2 10 15 39 260 95 792 45 424 81
778 81 788 0 47 -77 83 -122 56z"/>
</g>
</svg>
