<svg width="80" height="80" viewBox="0 0 80 80" fill="none" xmlns="http://www.w3.org/2000/svg">
<rect width="80" height="80"/>
<path d="M14.3594 5.89062C14.1719 6.09375 14.1406 8.14062 14.0938 17.4531L14.0625 28.7656L14.4375 29.1406L14.8281 29.5312H19.5312C22.1094 29.5312 24.2188 29.5625 24.2188 29.5938C24.2188 29.6406 23.9531 30.0781 23.6094 30.5781C23.2812 31.0781 22.8906 31.7188 22.75 31.9844L22.4844 32.5H13.9375C6.45312 32.5 5.34375 32.5312 5.03125 32.75L4.6875 32.9844V53.5156V74.0469L5.03125 74.2812C5.34375 74.5 7.0625 74.5312 20.4688 74.5312C33.875 74.5312 35.5938 74.5 35.9062 74.2812C36.25 74.0469 36.25 74.0312 36.25 68.9531V63.875L36.6094 63.9688C37.9375 64.3438 40.0156 64.5781 41.9531 64.5781C45.4688 64.5781 48.2969 63.9531 51.4531 62.4531L53.1406 61.6719L59.1094 67.5938C64.5469 73 65.1719 73.5781 66.0938 74C66.9531 74.3906 67.3125 74.4531 68.4375 74.4531C69.5781 74.4531 69.8906 74.3906 70.6406 74.0156C71.6094 73.5469 72.7656 72.4062 73.25 71.4688C73.7188 70.5625 73.9219 69.2344 73.75 68.2188C73.4531 66.3906 73.3594 66.2656 66.9688 59.8438L60.9688 53.8281L61.7344 52.2656C63.2188 49.2031 63.75 47 63.8594 43.4375C63.9375 41 63.75 38.875 63.3438 37.375L63.25 37.0312H66.0625C68.5938 37.0312 68.9062 37 69.2344 36.7344L69.6094 36.4375V25.625C69.6094 15.1094 69.5938 14.8125 69.3125 14.5938C68.8594 14.2656 51.1406 14.2656 50.6875 14.5938C50.4062 14.7969 50.3906 15.0625 50.3438 18.5C50.3125 20.5312 50.25 22.1875 50.2031 22.1875C50.1562 22.1875 49.4531 21.9688 48.6406 21.7188C47.8438 21.4531 47.0781 21.25 46.9531 21.25C46.75 21.25 46.7188 20.2812 46.7188 13.7031C46.7188 6.57812 46.7031 6.125 46.4375 5.89062C46.1719 5.64062 44.8281 5.625 30.3594 5.625C15.8594 5.625 14.5469 5.64062 14.3594 5.89062ZM44.8438 14.1562V20.8281L43.5625 20.7344C42.0938 20.625 42.2344 20.7188 41.125 18.8281C40.25 17.3438 39.6406 16.875 38.6094 16.875C37.5156 16.875 37.0156 17.2812 35.7969 19.1719L34.7188 20.8438L33.9531 19.625C31.4688 15.6406 31.1406 15.3125 29.8125 15.3125C28.4219 15.3125 28.0625 15.6406 26.3125 18.4688C25.5781 19.6562 24.9219 20.625 24.875 20.625C24.8125 20.625 24.5 20.1719 24.1875 19.6406C23.3281 18.2188 22.8281 17.7812 21.9062 17.6875C21.0938 17.6094 20.4531 17.8438 19.9844 18.375C19.8438 18.5469 18.9375 20.0781 17.9688 21.7969C17.0156 23.5156 16.1562 24.9844 16.0781 25.0781C16 25.1562 15.9375 21.625 15.9375 16.3594V7.5H30.3906H44.8438V14.1562ZM67.7812 25.6562C67.7344 34.4844 67.7188 35.0781 67.4688 35.125C67.2188 35.1719 67.1875 35.0156 67.1875 33.5625C67.1875 31.7031 66.9219 30.6094 66.2188 29.5C65.6094 28.5312 64.7656 27.7969 63.7031 27.2969L62.8281 26.875L63.25 26.1406C63.6406 25.4531 63.6719 25.25 63.6719 23.6719C63.6719 21.6875 63.4375 21.0469 62.3438 20.125C60.9531 18.9219 59.0469 18.9219 57.6562 20.125C56.5625 21.0469 56.3281 21.6875 56.3281 23.6719C56.3281 25.0156 56.3906 25.5 56.6094 25.9062C56.8594 26.375 56.7969 26.3438 55.6719 25.4531C55 24.9375 53.9688 24.2031 53.3594 23.8281L52.2656 23.1719L52.2188 19.7031L52.1875 16.25H60H67.8125L67.7812 25.6562ZM30.8281 18.1719C31.7812 19.6719 31.7812 19.5781 31.0625 20.125L30.4375 20.6094L29.8281 20.2188C29.0781 19.75 28.9219 19.75 27.9375 20.25L27.125 20.6562L27.375 20.2969C27.5 20.0938 27.9062 19.4219 28.2812 18.8281C28.6406 18.2188 29.125 17.5781 29.3281 17.375C29.8281 16.9219 30.1406 17.0938 30.8281 18.1719ZM39.125 19.1094C39.5938 19.7344 39.625 19.8906 39.2656 19.7812C39.1094 19.7344 38.7812 19.7969 38.5312 19.9219C38.1562 20.125 38.0312 20.125 37.8594 19.9688C37.6875 19.7969 37.7344 19.6562 38.0469 19.1719C38.2656 18.8594 38.5156 18.5938 38.5938 18.5938C38.6719 18.5938 38.9062 18.8281 39.125 19.1094ZM22.7656 20.875C23.4219 21.9375 23.5312 22.1875 23.2969 22.1875C23.1406 22.1875 22.7344 22.3906 22.4062 22.625L21.7969 23.0781L21.125 22.75C20.4844 22.4375 20.4219 22.4375 19.9844 22.6875C19.7344 22.8281 19.5312 22.9375 19.5312 22.9062C19.5312 22.7969 20.9844 20.25 21.2812 19.8125C21.4375 19.5781 21.6562 19.4219 21.7656 19.4688C21.875 19.5156 22.3125 20.1406 22.7656 20.875ZM61.125 21.5156C61.6094 21.9375 61.875 22.7031 61.875 23.6719C61.875 25.3125 61.2344 26.1719 60 26.1719C58.6719 26.1719 58.0312 25.2031 58.1562 23.3438C58.2188 22.2812 58.5469 21.6562 59.2344 21.2812C59.7188 21.0156 60.7188 21.1406 61.125 21.5156ZM33.4375 22.2656C33.4375 22.2969 32.8125 22.6562 32.0312 23.0469C30.3125 23.9375 28.9219 24.9062 27.1562 26.4688L25.7812 27.6719L24.3125 27.625L22.8438 27.5781L24.4062 25.0781C25.2656 23.7031 26.0469 22.6094 26.1406 22.6406C26.8281 22.875 27.2344 22.8125 28.0469 22.3594L28.9219 21.8594L29.5938 22.2656C30.4531 22.7656 30.8594 22.7656 31.5 22.2031C32.0156 21.7344 32.0312 21.7344 32.7344 21.9688C33.125 22.1094 33.4375 22.2344 33.4375 22.2656ZM45.7344 22.8906C51.7812 24.0625 57.0312 27.9688 59.8125 33.3906C61.3906 36.4844 62.0469 39.1875 62.0469 42.6562C62.0469 46.1094 61.3906 48.8281 59.8281 51.8906C57.0312 57.3438 51.9844 61.1094 45.7031 62.4375C43.7969 62.8438 40.0625 62.7969 38.0156 62.3594C30.875 60.8438 25.1719 55.8125 22.9062 49.0312C22.1562 46.8125 21.9531 45.4219 21.9531 42.6562C21.9531 39.8906 22.1562 38.5 22.9062 36.2812C24.5312 31.4062 28.2344 27.0781 32.7344 24.8125C34.9219 23.7031 37.1875 22.9844 39.4688 22.6719C40.9062 22.4688 44.1562 22.5781 45.7344 22.8906ZM21.7812 25.1562C21.9219 25.1562 22.0312 25.2031 22.0312 25.25C22.0312 25.3125 21.7031 25.875 21.3125 26.5L20.5938 27.6562H18.7188H16.8438L17.3906 26.6719C17.6875 26.1406 18 25.5469 18.1094 25.3594C18.2656 25.0625 18.3281 25.0469 18.8125 25.1875C19.2656 25.3281 19.4062 25.2969 19.9375 24.9531L20.5312 24.5469L21.0312 24.8438C21.2969 25.0156 21.6406 25.1562 21.7812 25.1562ZM63.1562 29.1094C64.7344 30.0312 65.3125 31.2344 65.3125 33.625V35.1562H63.9688C62.7031 35.1562 62.625 35.1406 62.5312 34.7969C62.3438 34.0312 60.5781 30.7969 59.7656 29.7031L58.8906 28.5625L60.6562 28.6094C62.25 28.6719 62.5 28.7188 63.1562 29.1094ZM21.4844 34.6406C21.2812 35.2031 20.6406 37.2812 20.5938 37.5781C20.5469 37.875 20.3906 37.8906 16.9531 37.9844C14.9688 38.0312 13.3438 38.0781 13.3281 38.0938C13.3125 38.1094 13.1875 38.2344 13.0625 38.375C12.75 38.6875 12.75 39.2812 13.0625 39.5938C13.2656 39.8125 13.8281 39.8438 16.7344 39.8438C20.5469 39.8438 20.2656 39.75 20.0625 40.9688L19.9531 41.5625H14.3594C8.95312 41.5625 8.73438 41.5781 8.4375 41.875C8.0625 42.25 8.03125 42.7656 8.39062 43.1562C8.625 43.4219 9.01562 43.4375 14.2969 43.4375H19.9688L20.0312 44.0781C20.0625 44.4219 20.0625 44.7344 20.0156 44.7812C19.9844 44.8125 17.4219 44.8438 14.3281 44.8438C9.3125 44.8438 8.67188 44.875 8.40625 45.1094C8.0625 45.4062 8.04688 45.9219 8.34375 46.3438C8.5625 46.625 8.85938 46.6406 14.4688 46.7188L20.375 46.7969L20.5625 47.5469L20.75 48.2969L20.2188 48.5156C19.7656 48.7031 19.6875 48.8125 19.6875 49.2812C19.6875 49.9375 20.125 50.3125 20.875 50.3125C21.2969 50.3125 21.4062 50.3906 21.6094 50.8906L21.8438 51.4844L21.0469 51.5312C20.1094 51.5938 19.6875 51.8906 19.6875 52.5C19.6875 53.2031 20.0938 53.4219 21.5469 53.4688L22.8438 53.5156L23.2344 54.1719L23.625 54.8438H21.8281C19.8281 54.8438 19.625 54.9375 19.7188 55.8125C19.7969 56.5938 20.1875 56.7188 22.8281 56.7188H25.1094L25.6094 57.3438L26.1094 57.9688H23.1875C20.6875 57.9688 20.2188 58 19.9688 58.2344C19.625 58.5469 19.6094 59.1875 19.9531 59.5625C20.1875 59.8281 20.5312 59.8438 24.1875 59.8438H28.1719L29.2656 60.5938L30.3438 61.3281L19.5156 61.375C9.71875 61.4062 8.67188 61.4375 8.40625 61.6719C8.0625 61.9688 8.04688 62.4844 8.34375 62.9062C8.5625 63.2031 8.875 63.2031 20.3906 63.2031C31.7031 63.2031 32.2188 63.1875 32.4219 62.9219C32.625 62.6406 32.6562 62.6406 33.4688 62.9375L34.2969 63.25L34.3438 67.9531L34.375 72.6562H20.4688H6.5625V53.5156V34.375H14.0781C21.1719 34.375 21.5938 34.3906 21.4844 34.6406ZM71.6094 67.5C72.2969 69 71.9062 70.6719 70.6094 71.7656C69.375 72.8281 67.625 72.8906 66.25 71.9531C65.9531 71.7344 63.25 69.1094 60.2344 66.0938L54.7656 60.6094L55.3906 60.1094C56.4375 59.2969 58.5781 57.1719 59.25 56.2812L59.9062 55.4531L65.5938 61.125C69.8125 65.3281 71.3594 66.9844 71.6094 67.5Z" fill="#46D9A2"/>
<path d="M34.5312 9.0469C32.8594 9.59377 31.9844 10.75 31.9688 12.4375C31.9688 13.6094 32.5156 14.6406 33.4688 15.2656C34.3438 15.8594 35.9219 15.9531 36.8281 15.5C38.1562 14.8125 38.8281 13.5938 38.7188 12.0313C38.6406 10.9063 38.0938 10.0313 37.125 9.45315C36.3906 9.03127 35.1719 8.82815 34.5312 9.0469ZM36.0938 11.0156C36.6719 11.3125 36.875 11.6875 36.875 12.4375C36.875 13.2969 36.25 13.9063 35.3906 13.9063C34.5938 13.9063 34.1406 13.5938 33.9062 12.8906C33.4531 11.5 34.7969 10.3438 36.0938 11.0156Z" fill="#22A92B"/>
<path d="M39.3438 26.0156C34.2031 26.8593 29.6875 30.0625 27.1406 34.6875C26.4063 36.0156 25.5313 38.6719 25.3281 40.2031C24.4844 46.375 26.9531 52.375 31.8594 56.1094C33.2031 57.125 36 58.5 37.5781 58.9062C42.4219 60.1562 47.25 59.3594 51.375 56.6094C53.8906 54.9375 55.8125 52.6875 57.1719 49.8281C58.4844 47.0937 59 44.2344 58.7344 41.1719C58.5625 39.0625 58.0781 37.3906 57.0313 35.2344C54.7969 30.6562 51 27.5937 45.9531 26.3125C44.0313 25.8281 41.2656 25.7031 39.3438 26.0156ZM44.0156 27.8281C50.2188 28.6719 55.3594 33.4687 56.6406 39.625C56.9844 41.2344 56.9844 44.0781 56.6406 45.7031C55.375 51.8281 50.4063 56.4844 44.1563 57.4375C38.4375 58.3281 32.6406 55.6875 29.4063 50.7344C26.2188 45.8594 26.2813 39.1875 29.5469 34.3594C32.75 29.6094 38.3906 27.0625 44.0156 27.8281Z" fill="#22A92B"/>
<path d="M33.5313 34.2344C32.4844 35.0625 30.9532 37.7344 30.4375 39.6719C30 41.3281 30 44 30.4532 45.6719C30.8438 47.1875 31.7813 49 32.8125 50.2657C33.7188 51.3907 34.0938 51.5625 34.6719 51.1407C35.3125 50.6563 35.25 50.3282 34.3125 49.1563C32.6875 47.1094 31.9844 45.1406 31.9844 42.6563C31.9844 40.1719 32.6875 38.2031 34.3125 36.1719C35.2344 35 35.3125 34.6875 34.8438 34.2188C34.4375 33.8125 34.0469 33.8281 33.5313 34.2344Z" fill="#22A92B"/>
<path d="M8.4375 48.4219C8.34375 48.625 8.28125 50.7188 8.28125 54.1875C8.28125 59.2656 8.29688 59.6562 8.5625 59.8906C8.8125 60.125 9.375 60.1562 13.1563 60.1562C17.125 60.1562 17.4688 60.1406 17.7031 59.875C17.9375 59.6094 17.9688 58.9844 17.9688 54.1094C17.9688 49.0156 17.9531 48.625 17.6875 48.3906C17.4375 48.1562 16.875 48.125 13 48.125C8.8125 48.125 8.59375 48.1406 8.4375 48.4219ZM16.0938 54.1406V58.2812H13.125H10.1563V54.1406V50H13.125H16.0938V54.1406Z" fill="#22A92B"/>
<path d="M8.43752 64.8438C8.06252 65.2188 8.0469 65.5938 8.37502 66.0625L8.6094 66.4062H20.375C31.5781 66.4062 32.1563 66.3906 32.3906 66.125C32.75 65.7344 32.7188 65.2188 32.3438 64.8438C32.0313 64.5312 31.8281 64.5312 20.3906 64.5312C8.95315 64.5312 8.75002 64.5312 8.43752 64.8438Z" fill="#22A92B"/>
<path d="M8.39061 68.0937C7.93749 68.5937 8.06249 69.1719 8.70311 69.5156C9.18749 69.7656 31.5937 69.7656 32.0781 69.5156C32.7187 69.1719 32.8594 68.5156 32.375 68.0781C32.1094 67.8281 31.0469 67.8125 20.3594 67.8125C9.20311 67.8125 8.62499 67.8281 8.39061 68.0937Z" fill="#22A92B"/>
</svg>
