<svg width="32" height="32" viewBox="0 0 32 32" fill="none" xmlns="http://www.w3.org/2000/svg">
<path d="M9.68117 8.07591C9.05082 8.26349 8.52725 8.76786 8.23792 9.46815C7.98302 10.0767 8.00024 9.61821 8.00024 16C8.00024 22.3818 7.98302 21.9232 8.23792 22.5318C8.45492 23.057 8.79937 23.4697 9.24027 23.7282C9.72939 24.0199 9.41249 24.0074 15.5954 23.9949L21.1583 23.9824L21.3994 23.8866C22.0194 23.6364 22.4637 23.1571 22.7462 22.4401C22.8495 22.1817 22.9322 21.7357 23.4317 18.7094C23.7451 16.817 24 15.1872 24 15.0829C24 14.4369 23.6555 13.8074 23.1389 13.5031L22.8805 13.3531H18.041H13.2015L12.9225 13.4656C12.3576 13.699 11.9063 14.1742 11.648 14.812C11.4964 15.183 11.4895 15.2205 10.9177 18.6886L10.3391 22.19L10.1806 22.2025C9.91195 22.2234 9.63294 21.9941 9.51927 21.6606C9.47105 21.5231 9.46416 20.8812 9.46416 16C9.46416 11.1188 9.47105 10.4769 9.51927 10.3393C9.58472 10.1434 9.71906 9.97252 9.88439 9.86831C10.0049 9.79328 10.1048 9.78911 11.4792 9.78911H12.9431L14.0144 10.652L15.089 11.519L17.5209 11.5398L19.9527 11.5607L20.1146 11.6774C20.2937 11.8024 20.4418 12.065 20.4763 12.3068L20.4969 12.4569L21.2237 12.4485L21.9505 12.436L21.9402 12.2276C21.8954 11.3189 21.4097 10.4602 20.707 10.0434C20.2799 9.78911 20.273 9.78911 17.8171 9.78911H15.5782L14.562 8.97211C14.0075 8.52193 13.4874 8.1176 13.4116 8.07591C13.2807 8.00505 13.1498 7.99671 11.5998 8.00088C10.1221 8.00088 9.90161 8.01339 9.68117 8.07591ZM22.5189 15.1455C22.5189 15.2247 21.4511 21.5856 21.4235 21.6731C21.3684 21.844 21.2065 22.0525 21.0549 22.1317C20.9241 22.2067 20.707 22.2109 16.3807 22.2109C13.8835 22.2109 11.8409 22.1984 11.8409 22.1775C11.8409 22.04 12.9156 15.6874 12.9569 15.5957C13.0155 15.4539 13.167 15.283 13.3048 15.1955C13.3978 15.133 13.88 15.1288 17.9652 15.1246C20.4694 15.1246 22.5189 15.133 22.5189 15.1455Z" fill="#FBEFFF"/>
</svg>
