<svg width="64" height="64" viewBox="0 0 64 64" fill="none" xmlns="http://www.w3.org/2000/svg">
<g clip-path="url(#clip0_57_95)">
<path d="M39.6875 0.125C38.0875 0.325001 36.6625 0.649998 36.1875 0.912498C35.6 1.25 35.25 1.8875 35.25 2.6C35.25 3.2125 35.3875 3.5375 35.85 4.0375C36.3875 4.6125 36.9125 4.675 38.525 4.35C40.3125 4 43.3125 3.9625 45.0875 4.2875C51.3625 5.4375 56.6125 9.9375 58.8625 16.1125C59.95 19.1 60.2625 22.6875 59.6875 25.75C58.55 31.7875 54.5875 39.3 48.1125 47.7125C45.9625 50.5 42.1875 55 42 55C41.95 55 41.4875 54.4875 40.95 53.875C39.8375 52.5875 39.5125 52.375 38.6625 52.375C37.0375 52.375 36.175 54.1125 37.125 55.5125C37.5875 56.1875 40.4375 59.325 40.9125 59.675C41.425 60.05 42.5375 60.0375 43.0875 59.65C44.1375 58.9125 49.3875 52.7375 52.3125 48.8125C58.925 39.9625 62.775 32.0875 63.75 25.475C64.5375 20.1625 63.2375 14.5125 60.15 9.875C56.775 4.78749 51.5625 1.375 45.5625 0.325001C44.2125 0.0874977 40.9 -0.0250015 39.6875 0.125Z" fill="#E5E5E5"/>
<path d="M20.3125 4.075C13.4375 4.75 7.65002 8.1875 3.87502 13.85C0.700022 18.5875 -0.624978 24.65 0.312522 30.0625C1.81252 38.675 8.40002 49.8625 18.7875 61.4625C20.8375 63.75 21.075 63.9375 22 63.9375C22.925 63.9375 23.1625 63.75 25.2125 61.4625C35.6 49.8625 42.1875 38.675 43.6875 30.0625C44.275 26.6875 43.9375 22.6125 42.7875 19.25C40.1 11.375 33.5875 5.725 25.5625 4.325C24.45 4.125 21.2875 3.975 20.3125 4.075ZM25.1625 8.3125C29.7625 9.125 34.125 12.025 36.8125 16.0625C39.5 20.1125 40.55 25.1375 39.6875 29.75C38.55 35.8125 34.6 43.275 28.075 51.75C25.925 54.5375 22.1875 59 22 59C21.8125 59 18.075 54.5375 15.925 51.75C9.38752 43.275 5.45002 35.8125 4.31252 29.75C3.13752 23.475 5.50002 16.6875 10.3375 12.4625C13.225 9.95 16.55 8.5 20.4375 8.075C21.3375 7.975 24.0375 8.1125 25.1625 8.3125Z" fill="#E5E5E5"/>
<path d="M20.1251 16.2C14.6626 17.3625 11.1126 22.5875 12.2001 27.85C13.1751 32.5875 17.2751 36 22.0001 36C28.1625 36 33.0251 30.125 31.8001 24.15C31.2376 21.4375 29.725 19.175 27.4501 17.6625C25.3626 16.2625 22.4876 15.6875 20.1251 16.2ZM23.2876 20.1875C24.4251 20.425 25.2876 20.9 26.2001 21.8125C29.6501 25.225 27.7251 31.1125 22.9126 31.8875C18.9876 32.525 15.4751 29.0125 16.1126 25.1C16.3126 23.825 16.8876 22.725 17.8001 21.8125C18.7001 20.925 19.5876 20.425 20.6626 20.1875C21.6751 19.9625 22.2626 19.9625 23.2876 20.1875Z" fill="#E5E5E5"/>
</g>
<defs>
<clipPath id="clip0_57_95">
<rect width="64" height="64" fill="white"/>
</clipPath>
</defs>
</svg>
