<svg width="64" height="64" viewBox="0 0 64 64" fill="none" xmlns="http://www.w3.org/2000/svg">
<path d="M13.8811 0.0663033C12.6532 0.386703 11.5721 1.2678 11.0115 2.41589C10.7445 2.97658 10.6778 3.32368 10.6377 4.71207L10.5844 6.3274L7.28759 6.3808L3.99082 6.42085L2.97643 6.9148C1.76184 7.51554 1.01439 8.28984 0.427112 9.53138L0 10.4258V33.0672V55.6953L0.493848 56.7099C1.09447 57.9247 1.86861 58.6723 3.10991 59.2597L4.00417 59.6869L19.794 59.727L35.5837 59.7537L35.9041 59.4333C36.3445 58.9927 36.3445 58.3786 35.9041 57.9514L35.5837 57.6177H20.2077C8.52888 57.6177 4.69823 57.5776 4.28446 57.4575C3.55036 57.2439 2.44254 56.1358 2.22899 55.4016C2.10886 54.9744 2.06882 50.8626 2.06882 38.0734V21.306H31.9666H61.8644V30.5842V39.8757L62.1981 40.1961C62.6252 40.6366 63.2392 40.6366 63.6797 40.1961L64 39.8623L63.9733 25.1507L63.9333 10.4258L63.5061 9.53138C62.9189 8.28984 62.1714 7.51554 60.9568 6.9148L59.9424 6.42085L56.6457 6.3808L53.3489 6.3274L53.2955 4.71207C53.2421 3.16348 53.2154 3.04333 52.7883 2.24234C52.3078 1.32119 51.7339 0.787197 50.7862 0.319954C49.9053 -0.107243 48.1702 -0.093895 47.2492 0.346653C46.395 0.760498 45.5942 1.56149 45.1804 2.41589C44.9135 2.98993 44.8467 3.32368 44.8067 4.71207L44.7533 6.3541H40.5089H36.2644L36.2111 4.71207C36.1577 3.16348 36.131 3.04333 35.7039 2.24234C35.2234 1.32119 34.6494 0.787197 33.7018 0.319954C32.8209 -0.107243 31.0857 -0.093895 30.1648 0.346653C29.3105 0.760498 28.5097 1.56149 28.0959 2.41589C27.829 2.98993 27.7623 3.32368 27.7222 4.71207L27.6688 6.3541H23.4244H19.18L19.1266 4.71207C19.0732 3.16348 19.0465 3.04333 18.6194 2.24234C17.8853 0.853947 16.7241 0.106354 15.1625 0.0129051C14.682 -0.0137939 14.108 -0.00044632 13.8811 0.0663033ZM16.0567 2.44258C16.2436 2.57608 16.5239 2.86978 16.6707 3.07003C16.9376 3.41713 16.951 3.60403 16.951 7.42209C16.951 11.2402 16.9376 11.4271 16.6707 11.7742C16.1502 12.4817 15.723 12.6953 14.8822 12.6953C14.0413 12.6953 13.6142 12.4817 13.0936 11.7742C12.8267 11.4271 12.8133 11.2001 12.7733 7.78254C12.7466 5.78006 12.7733 3.96447 12.8133 3.72417C12.9068 3.19018 13.4674 2.50933 14.0146 2.26904C14.5485 2.01539 15.6163 2.10884 16.0567 2.44258ZM33.1412 2.44258C33.328 2.57608 33.6083 2.86978 33.7552 3.07003C34.0221 3.41713 34.0355 3.60403 34.0355 7.42209C34.0355 11.2402 34.0221 11.4271 33.7552 11.7742C33.2346 12.4817 32.8075 12.6953 31.9666 12.6953C31.1258 12.6953 30.6986 12.4817 30.1781 11.7742C29.9112 11.4271 29.8978 11.2001 29.8578 7.78254C29.8311 5.78006 29.8578 3.96447 29.8978 3.72417C29.9912 3.19018 30.5518 2.50933 31.0991 2.26904C31.6329 2.01539 32.7007 2.10884 33.1412 2.44258ZM50.2257 2.44258C50.4125 2.57608 50.6928 2.86978 50.8396 3.07003C51.1066 3.41713 51.1199 3.60403 51.1199 7.42209C51.1199 11.2402 51.1066 11.4271 50.8396 11.7742C50.3191 12.4817 49.892 12.6953 49.0511 12.6953C48.2102 12.6953 47.7831 12.4817 47.2626 11.7742C46.9956 11.4271 46.9823 11.2001 46.9422 7.78254C46.9155 5.78006 46.9422 3.96447 46.9823 3.72417C47.0757 3.19018 47.6363 2.50933 48.1835 2.26904C48.7174 2.01539 49.7852 2.10884 50.2257 2.44258ZM10.6377 10.1188C10.6911 11.4538 10.7579 11.881 10.9848 12.3616C11.4386 13.3094 11.9858 13.8701 12.9068 14.3774C13.6809 14.7912 13.8411 14.8313 14.8822 14.8313C15.9233 14.8313 16.0834 14.7912 16.8576 14.3774C17.7919 13.8701 18.2056 13.4429 18.7128 12.4417C19.0198 11.8409 19.0732 11.5606 19.1266 10.1188L19.18 8.49009H23.4244H27.6688L27.7222 10.1188C27.7756 11.4538 27.8423 11.881 28.0692 12.3616C28.523 13.3094 29.0703 13.8701 29.9912 14.3774C30.7654 14.7912 30.9255 14.8313 31.9666 14.8179C32.9276 14.8179 33.2079 14.7645 33.7819 14.4708C34.7962 13.9368 35.21 13.5363 35.7039 12.6019C36.131 11.8009 36.1577 11.6807 36.2111 10.1188L36.2644 8.49009H40.5089H44.7533L44.8067 10.1188C44.8601 11.4538 44.9268 11.881 45.1537 12.3616C45.6075 13.3094 46.1547 13.8701 47.0757 14.3774C47.8498 14.7912 48.01 14.8313 49.0511 14.8313C50.0922 14.8313 50.2523 14.7912 51.0265 14.3774C51.9608 13.8701 52.3746 13.4429 52.8818 12.4417C53.1887 11.8409 53.2421 11.5606 53.2955 10.1188L53.3489 8.49009H56.2319C58.0872 8.49009 59.2884 8.54348 59.6488 8.65028C60.3829 8.86388 61.4907 9.97192 61.7043 10.7062C61.8111 11.08 61.8644 12.4951 61.8644 15.2184V19.17H31.9666H2.06882V15.2184C2.06882 12.4951 2.12221 11.08 2.22899 10.7062C2.4292 10.0253 3.55036 8.87723 4.20438 8.66364C4.48467 8.58353 5.88613 8.51678 7.62127 8.50344L10.5844 8.49009L10.6377 10.1188Z" fill="#E5E5E5"/>
<path d="M9.74341 26.8329C9.19617 27.0732 8.63559 27.754 8.54216 28.288C8.48877 28.5283 8.47542 29.6364 8.50212 30.7444C8.54216 32.9471 8.60889 33.1474 9.46312 33.7748C9.81015 34.0418 10.0104 34.0552 12.7465 34.0552C15.4827 34.0552 15.6829 34.0418 16.03 33.7748C16.9242 33.1207 16.9509 33.0005 16.9509 30.384C16.9509 28.1812 16.9242 27.9676 16.6706 27.6339C16.0033 26.7394 15.9365 26.7127 12.9067 26.686C10.8112 26.6593 10.0504 26.686 9.74341 26.8329ZM14.8821 30.384V31.9859H12.7465H10.611V30.384V28.782H12.7465H14.8821V30.384Z" fill="#E5E5E5"/>
<path d="M22.5569 26.8329C22.0096 27.0732 21.4491 27.754 21.3556 28.288C21.3022 28.5283 21.2889 29.6364 21.3156 30.7444C21.3556 32.9471 21.4224 33.1474 22.2766 33.7748C22.6236 34.0418 22.8238 34.0552 25.56 34.0552C28.2962 34.0552 28.4964 34.0418 28.8434 33.7748C29.7377 33.1207 29.7644 33.0005 29.7644 30.384C29.7644 28.1812 29.7377 27.9676 29.4841 27.6339C28.8167 26.7394 28.75 26.7127 25.7202 26.686C23.6247 26.6593 22.8639 26.686 22.5569 26.8329ZM27.6956 30.384V31.9859H25.56H23.4245V30.384V28.782H25.56H27.6956V30.384Z" fill="#E5E5E5"/>
<path d="M35.3701 26.8329C34.8229 27.0732 34.2623 27.754 34.1689 28.288C34.1155 28.5283 34.1021 29.6364 34.1288 30.7444C34.1689 32.9471 34.2356 33.1474 35.0898 33.7748C35.4369 34.0418 35.6371 34.0552 38.3732 34.0552C41.1094 34.0552 41.3096 34.0418 41.6567 33.7748C42.5509 33.1207 42.5776 33.0005 42.5776 30.384C42.5776 28.1812 42.5509 27.9676 42.2973 27.6339C41.63 26.7394 41.5632 26.7127 38.5334 26.686C36.4379 26.6593 35.6771 26.686 35.3701 26.8329ZM40.5088 30.384V31.9859H38.3732H36.2377V30.384V28.782H38.3732H40.5088V30.384Z" fill="#E5E5E5"/>
<path d="M48.1836 26.8329C47.6364 27.0732 47.0758 27.754 46.9823 28.288C46.929 28.5283 46.9156 29.6364 46.9423 30.7444C46.9823 32.9471 47.0491 33.1474 47.9033 33.7748C48.2503 34.0418 48.4505 34.0552 51.1867 34.0552C53.9229 34.0552 54.1231 34.0418 54.4701 33.7748C55.3644 33.1207 55.3911 33.0005 55.3911 30.384C55.3911 28.1812 55.3644 27.9676 55.1108 27.6339C54.4434 26.7394 54.3767 26.7127 51.3469 26.686C49.2514 26.6593 48.4906 26.686 48.1836 26.8329ZM53.3223 30.384V31.9859H51.1867H49.0512V30.384V28.782H51.1867H53.3223V30.384Z" fill="#E5E5E5"/>
<path d="M9.74341 36.4447C9.19617 36.685 8.63559 37.3658 8.54216 37.8998C8.48877 38.1401 8.47542 39.2482 8.50212 40.3562C8.54216 42.559 8.60889 42.7592 9.46312 43.3866C9.81015 43.6536 10.0104 43.667 12.7465 43.667C15.4827 43.667 15.6829 43.6536 16.03 43.3866C16.9242 42.7325 16.9509 42.6124 16.9509 39.9958C16.9509 37.793 16.9242 37.5794 16.6706 37.2457C16.0033 36.3513 15.9365 36.3246 12.9067 36.2979C10.8112 36.2712 10.0504 36.2979 9.74341 36.4447ZM14.8821 39.9958V41.5978H12.7465H10.611V39.9958V38.3938H12.7465H14.8821V39.9958Z" fill="#E5E5E5"/>
<path d="M22.5569 36.4447C22.0096 36.685 21.4491 37.3658 21.3556 37.8998C21.3022 38.1401 21.2889 39.2482 21.3156 40.3562C21.3556 42.559 21.4224 42.7592 22.2766 43.3866C22.6236 43.6536 22.8238 43.667 25.56 43.667C28.2962 43.667 28.4964 43.6536 28.8434 43.3866C29.7377 42.7325 29.7644 42.6124 29.7644 39.9958C29.7644 37.793 29.7377 37.5794 29.4841 37.2457C28.8167 36.3513 28.75 36.3246 25.7202 36.2979C23.6247 36.2712 22.8639 36.2979 22.5569 36.4447ZM27.6956 39.9958V41.5978H25.56H23.4245V39.9958V38.3938H25.56H27.6956V39.9958Z" fill="#E5E5E5"/>
<path d="M35.3701 36.4447C34.8229 36.685 34.2623 37.3659 34.1689 37.8999C34.1155 38.1402 34.1021 39.2482 34.1288 40.3563C34.1689 42.1585 34.1956 42.4255 34.4492 42.7459C34.8763 43.3333 35.3568 43.627 36.0108 43.6937C36.5313 43.7605 36.6648 43.7204 36.9584 43.4267C37.4122 42.9728 37.4122 42.3721 36.9718 41.9315C36.7983 41.7446 36.558 41.5978 36.4379 41.5978C36.2644 41.5978 36.2377 41.3575 36.2377 39.9958V38.3938H38.5735C40.8825 38.3938 40.9226 38.3938 41.2429 38.0601C41.4565 37.8598 41.5766 37.5795 41.5766 37.3258C41.5766 37.0722 41.4565 36.7918 41.2429 36.5916C40.9226 36.2578 40.9092 36.2578 38.3466 36.2578C36.5046 36.2712 35.6504 36.3246 35.3701 36.4447Z" fill="#E5E5E5"/>
<path d="M47.8232 36.4581C42.8847 37.2858 38.6403 40.8636 37.0252 45.5761C36.0242 48.4596 36.0109 51.717 36.9719 54.5338C38.5468 59.193 42.4709 62.6773 47.2492 63.7052C50.9865 64.5062 55.0707 63.6518 58.194 61.4224C59.1416 60.7549 60.7433 59.1396 61.3973 58.2318C62.5719 56.5764 63.5462 54.12 63.8532 52.0508C64.3604 48.6198 63.3727 44.695 61.2905 41.9182C60.5698 40.9704 58.848 39.3016 57.9671 38.6875C55.1108 36.7251 51.2667 35.884 47.8232 36.4581ZM52.9885 38.7676C57.3264 39.9558 60.3829 43.0396 61.5441 47.4184C61.9045 48.7934 61.8912 51.5835 61.5041 53.012C60.3429 57.2839 57.2597 60.3677 52.9885 61.5292C51.5604 61.9163 48.7708 61.9297 47.3961 61.5692C42.244 60.1942 38.747 56.0157 38.4134 50.8226C38.1998 47.5118 39.4411 44.2811 41.8436 41.8648C43.6054 40.116 45.6075 39.048 48.0501 38.5807C49.3047 38.3404 51.7606 38.4339 52.9885 38.7676Z" fill="#E5E5E5"/>
<path d="M56.6591 45.4292C56.5523 45.4693 54.5502 47.405 52.2278 49.7279L47.9834 53.9465L46.0214 51.984C43.739 49.7145 43.472 49.5677 42.7646 50.2619C42.0439 50.9961 42.164 51.1964 45.0203 54.0533C47.3027 56.3227 47.5696 56.5497 47.9834 56.5497C48.4105 56.5497 48.7976 56.1892 53.0954 51.9039C55.6581 49.3541 57.8337 47.1113 57.9404 46.9111C58.2074 46.3904 58.1807 46.1635 57.7402 45.7229C57.3665 45.3491 57.0862 45.269 56.6591 45.4292Z" fill="#E5E5E5"/>
<path d="M9.74341 46.0566C9.19617 46.2969 8.63559 46.9778 8.54216 47.5118C8.48877 47.7521 8.47542 48.8601 8.50212 49.9682C8.54216 52.1709 8.60889 52.3711 9.46312 52.9986C9.81015 53.2656 10.0104 53.2789 12.7465 53.2789C15.4827 53.2789 15.6829 53.2656 16.03 52.9986C16.9242 52.3444 16.9509 52.2243 16.9509 49.6077C16.9509 47.405 16.9242 47.1914 16.6706 46.8576C16.0033 45.9632 15.9365 45.9365 12.9067 45.9098C10.8112 45.8831 10.0504 45.9098 9.74341 46.0566ZM14.8821 49.6077V51.2097H12.7465H10.611V49.6077V48.0057H12.7465H14.8821V49.6077Z" fill="#E5E5E5"/>
<path d="M22.5569 46.0566C22.0096 46.2969 21.4491 46.9778 21.3556 47.5118C21.3022 47.7521 21.2889 48.8601 21.3156 49.9682C21.3556 52.1709 21.4224 52.3711 22.2766 52.9986C22.6236 53.2656 22.8238 53.2789 25.56 53.2789C28.2962 53.2789 28.4964 53.2656 28.8434 52.9986C29.7377 52.3444 29.7644 52.2243 29.7644 49.6077C29.7644 47.405 29.7377 47.1914 29.4841 46.8576C28.8167 45.9632 28.75 45.9365 25.7202 45.9098C23.6247 45.8831 22.8639 45.9098 22.5569 46.0566ZM27.6956 49.6077V51.2097H25.56H23.4245V49.6077V48.0057H25.56H27.6956V49.6077Z" fill="#E5E5E5"/>
</svg>
